<?xml version="1.0" encoding="UTF-8"?><svg id="Layer_1" xmlns="http://www.w3.org/2000/svg" viewBox="0 0 471.91 124.43"><path d="M11.89,41.53c-.2-1,.2-2.13.97-3.01.95-1.09,2.24-1.8,3.65-2.12,3.04-.7,6.11,1.5,7.87,4.03,5.02,7.26,3.13,16.8,6.3,24.74,1.69,4.22,4.45,8.21,8.77,10.05,1.45.62,3.2.22,3.67-1.49,3.31-12.05,8.47-23.48,15.31-33.94l-4.57-.6c3.25,16.19,10.46,31.37,20.75,44.26,1.17,1.47,3.8.61,4.18-1.1,2.57-11.51,5.14-23.03,7.72-34.54l-2.41,1.84c2.99-.21,5.43,2.5,7.99,3.7,3.42,1.6,7.09,1.4,10.41-.35,7.21-3.81,8.63-12.2,9.54-19.53.18-1.42-1.29-2.4-2.5-2.5-3.85-.32-5.48,3.7-5.74,6.87-.16,1.97.17,4.02.3,5.99.16,2.32.33,4.65.49,6.97.33,4.65.65,9.29.98,13.94.24,3.37.57,6.82,1.86,9.98s3.68,6.35,7.13,7.04c2.43.48,4.08-.87,5.17-2.9.84-1.55,1.74-3.06,2.72-4.52,3.81-5.68,8.8-10.62,14.48-14.43,6.57-4.43,13.98-7.38,21.81-8.62l-1.93-4.57c-4.3,2.76-8.6,5.51-12.9,8.27-3.37,2.16-6.71,4.48-9.13,7.72s-3.31,7.27-2.03,11.04,4.29,6.7,7.48,9.07,7.53,5.7,11.59,4.02c2.12-.88,3.19-2.82,4.1-4.81.97-2.12,1.84-4.29,2.61-6.49,2.98-8.54,4.34-17.6,4.86-26.61.6-10.35.06-20.73-.51-31.07-.18-3.26-4.67-3.16-5,0-1.09,10.35-2.18,20.7-3.27,31.05-.53,5.07-1.08,10.14-1.6,15.22-.46,4.44-.72,9.3,1.59,13.32,2.04,3.56,6.11,6.2,10.3,5.59,3.65-.53,6.12-3.32,7.21-6.7,1.02-3.17,1.01-6.62,1.34-9.91s1.4-6.42,3.74-8.98c6.84-7.48,17.66-7.6,27.05-7.67l-1.26-4.66c-5.93,3.17-11.93,6.54-15.96,12.08-3.71,5.1-5.3,12.22-2.12,17.97,2.85,5.14,9.11,8.39,14.82,6.1,5.41-2.18,8.27-7.78,9.95-13.04,2.48-7.8,3.53-16.1,3.22-24.27h-5c.62,11.57.49,23.17-.43,34.72-.45,5.63-1.07,11.25-1.9,16.84-.41,2.79-.81,5.6-1.39,8.36-.41,1.93-1.01,3.39-3.06,3.88-1.85.45-4.04.28-5.91-.02s-4.01-.91-5.37-2.42c-2.64-2.93-.74-7,1.2-9.78,2.67-3.82,6.65-6.57,10.46-9.15,4.28-2.9,8.79-5.47,13.46-7.7,4.44-2.11,9.03-3.74,13.68-5.31,4.37-1.48,8.98-3.3,11.97-6.99,2.45-3.03,3.37-7.3,2.28-11.06-1.15-3.96-4.71-6.79-8.93-6.31-4.98.57-8.54,4.8-10.18,9.26s-1.53,9.42.22,13.7c3.55,8.69,13.87,13.29,22.56,9.28,7.67-3.54,10.71-12.42,12.19-20.12.96-5.01,1.55-10.1,2.28-15.15.84-5.8,1.67-11.59,2.51-17.39.41-2.86.82-5.71,1.24-8.57.45-3.13-3.74-4.44-4.82-1.33-3.26,9.4-5.36,19.16-6.31,29.06-.46,4.83-.64,9.7-.51,14.55.09,3.72.34,7.53,1.76,11.02s3.95,6.43,7.74,7.11c4.52.81,8.65-1.73,11.31-5.23s3.56-8.18,4.82-12.43c1.05-3.55,2.7-6.71,5.3-9.37,5.35-5.48,13.5-8.28,21.04-6.51l-1.1-4.18c-.37.33-.19.16-.09.1-.15.09-.29.2-.44.29-.27.17-.55.31-.83.46-.45.24-1.08.46-1.76.7-1.43.5-2.91.94-4.25,1.65-3.33,1.76-4.37,5.66-1.96,8.71,1.17,1.47,2.84,2.39,4.1,3.78,1.11,1.22,1.88,2.75,2.33,4.33.95,3.35.44,6.84-1.51,9.73-2.14,3.18-5.93,5.26-9.73,5.51-1.35.09-2.5,1.09-2.5,2.5,0,1.28,1.15,2.59,2.5,2.5,8.55-.56,15.98-7.04,16.68-15.76.33-4.11-1-8.3-3.54-11.53-1.2-1.52-2.82-2.47-4.13-3.85-.13-.13-.39-.39-.47-.53-.07-.13-.11-.67-.14-.25,0-.14.1-.27.11-.41,0,.16-.25.35.02.05-.06.07-.29.4,0,.03.27-.34-.14.06.08-.09,1.17-.83,2.45-1.1,4.03-1.66,1.84-.66,3.59-1.42,5.05-2.74,1.37-1.25.68-3.76-1.1-4.18-7.11-1.66-14.72-.19-20.86,3.73-3.08,1.97-5.73,4.49-7.85,7.47-2.33,3.29-3.5,7.08-4.54,10.93s-2.04,7.73-5.28,10.1c-1.29.94-2.87,1.57-4.47,1.2-1.14-.26-2.1-1-2.77-1.92-1.75-2.42-2.25-5.68-2.41-8.6-.26-4.64-.17-9.31.15-13.94.72-10.57,2.92-21,6.4-31.01l-4.82-1.33c-1.63,11.27-3.25,22.53-4.88,33.8-.6,4.16-1.17,8.33-2.35,12.37-.97,3.36-2.37,6.78-4.82,9.33s-5.88,3.93-9.48,3.48-7.15-2.69-9.02-5.95c-2.04-3.56-2.24-7.93-.93-11.77.97-2.85,4.29-7.11,7.5-5.84.71.28,1.03.59,1.35.99s.61,1.05.75,1.54c.4,1.39.36,2.77-.07,4.22-.45,1.53-1.38,2.71-2.74,3.83-1.52,1.25-3.37,2.15-5.19,2.86-4.52,1.76-9.17,3.11-13.64,5.01s-8.98,4.2-13.21,6.78-8.48,5.36-12.13,8.68c-3.19,2.9-6.17,6.72-7.18,10.99-1.07,4.53.58,9.06,4.56,11.58,3.66,2.32,8.88,2.8,13.08,2.15,2.36-.37,4.47-1.51,5.85-3.48s1.68-4.37,2.07-6.63c.96-5.61,1.74-11.25,2.35-16.9,1.19-11.11,1.66-22.3,1.41-33.47-.06-2.77-.17-5.54-.32-8.31-.17-3.19-5.12-3.23-5,0,.24,6.2-.33,12.38-1.78,18.42-1.09,4.51-2.46,9.74-6.08,12.95-3.2,2.85-7.57,1.79-10.05-1.47-3.07-4.03-1.8-9.37.78-13.3,3.44-5.24,9.37-8.25,14.74-11.12,2.21-1.18,1.17-4.68-1.26-4.66-8.79.07-18.24.26-25.87,5.21-3.19,2.07-6.05,4.85-7.79,8.26-1.65,3.23-2.03,6.7-2.32,10.26-.23,2.8-.35,5.74-1.68,7.99-.42.71-1.3,1.44-2.37,1.62-1.42.24-2.9-.52-3.91-1.46-2.95-2.73-2.79-7.12-2.48-10.81.41-4.84,1-9.66,1.51-14.49,1.17-11.17,2.35-22.35,3.52-33.52h-5c.9,16.15,1.84,32.73-1.92,48.61-.93,3.95-2.15,7.86-3.73,11.61-.34.8-.7,1.6-1.07,2.38-.26.54-.6,1.49-1.2,1.76-1.21.55-3.19-1.04-4.13-1.63-4.61-2.92-11.21-7.93-7.61-14.06,1.82-3.1,5.05-5.2,8.01-7.09,4.37-2.8,8.74-5.6,13.11-8.4,2.5-1.6.81-5-1.93-4.57-12.82,2.04-24.86,8.68-33.64,18.21-2.22,2.41-4.26,5.03-6.05,7.78-.89,1.37-1.68,2.78-2.47,4.21-.22.4-.53.54.08.37.67-.19.11-.2-.21-.36-.54-.27-.96-.61-1.38-1.04-1.82-1.87-2.45-4.79-2.83-7.32-.52-3.55-.6-7.2-.85-10.79-.33-4.73-.67-9.46-1-14.19-.13-1.88-.52-3.93-.24-5.81.06-.43.25-1.08.47-1.46.06-.11.15-.13.04-.14-.2-.02.02.02.2.04l-2.5-2.5c-.7,5.64-1.7,13.06-7.72,15.53-2.56,1.05-4.72.18-6.93-1.21-2.55-1.6-5.14-3.36-8.3-3.14-1.06.07-2.16.72-2.41,1.84-2.57,11.51-5.14,23.03-7.72,34.54l4.18-1.1c-9.75-12.21-16.39-26.75-19.47-42.05-.45-2.24-3.48-2.27-4.57-.6-7.06,10.8-12.4,22.7-15.82,35.14l3.67-1.49c-9.07-3.86-8.03-16.23-9.7-24.19-.92-4.39-2.83-8.85-6.21-11.91s-7.81-4.46-12.11-2.85c-4.54,1.7-7.86,5.92-6.88,10.91.26,1.33,1.84,2.08,3.08,1.75,1.38-.38,2.01-1.75,1.75-3.08h0Z" style="fill:#009444;"/><path d="M344.87,20.42c-.11,8.65-.21,17.3-.32,25.95s-.39,16.9-.24,25.33c.08,4.7.48,9.42,1.61,14,.77,3.12,5.59,1.8,4.82-1.33-1.93-7.83-1.46-16.03-1.36-24.03l.31-25.46c.06-4.82.12-9.65.18-14.47.04-3.22-4.96-3.22-5,0h0Z" style="fill:#009444;"/><path d="M362.61,85.28c6.55-13.37,10.75-27.7,12.49-42.49l-3.76,2.16c.8.35.94.78,1.1,1.85s.05,2.42,0,3.58c-.16,3.41-.45,6.81-.87,10.19-.83,6.7-2.26,13.33-4.14,19.81l4.91.66c.23-5.11,1.09-10.15,2.57-15.05.75-2.48,1.64-4.93,2.7-7.29.95-2.11,1.94-4.43,3.34-6.29.43-.57.94-1.14,1.66-1.29.97-.2,2.05.44,2.84.93,1.53.94,2.85,2.18,4,3.55,2.31,2.77,3.77,6.37,4.24,9.94.53,4.04-.17,8.2-2.25,11.76-.66,1.13-.3,2.79.9,3.42,1.91,1.01,3.83,2.03,5.74,3.04s4.02,2.01,6.08.68c1.5-.97,2.04-2.76,2.8-4.27s1.54-2.85,2.42-4.2c3.48-5.32,8.24-9.79,13.71-13.02,3.1-1.83,6.38-3.23,9.85-4.19,1.96-.55,2.24-2.75,1.1-4.18-2.02-2.52-5.73-2.84-8.56-1.68-3.07,1.27-4.96,4.13-6.38,7-3.07,6.17-6.38,13.22-4.16,20.22,1.03,3.26,3.15,5.96,6.17,7.61s6.83,2.55,10.33,3.2c6.77,1.27,14.23,1.83,20.99.18,6.11-1.49,11.87-5.24,12.64-11.93.16-1.34-1.26-2.5-2.5-2.5-1.48,0-2.34,1.15-2.5,2.5-.41,3.53-4.28,5.72-7.68,6.75-5.12,1.55-10.79,1.32-16.08.72-3.05-.35-6.08-.99-9.03-1.84-2.32-.67-4.82-1.57-6.32-3.6-3.18-4.3-1.51-10.22.47-14.63,1.14-2.55,2.26-5.66,4.18-7.74,1.35-1.47,3.55-2.39,4.88-.72l1.1-4.18c-7.86,2.19-15.08,6.5-20.78,12.33-2.84,2.9-5.33,6.19-7.32,9.74-.49.87-.94,1.75-1.36,2.66-.18.39-.52.89-.61,1.3-.09.1-.15.21-.18.34.45.05.62,0,.52-.18.02-.04-6.44-3.41-7.02-3.72l.9,3.42c4.76-8.14,3.86-18.98-1.77-26.48-2.95-3.93-8.55-9.02-13.83-6.62-2.47,1.12-3.89,3.58-5.11,5.88-1.42,2.67-2.65,5.45-3.7,8.29-2.39,6.45-3.71,13.29-4.02,20.16-.13,2.86,4.14,3.33,4.91.66,2.14-7.38,3.62-14.92,4.49-22.56.42-3.65.79-7.39.77-11.07-.02-2.82-.79-6.2-3.64-7.45-1.85-.81-3.53.17-3.76,2.16-1.64,13.85-5.68,27.44-11.81,39.96-.59,1.21-.33,2.7.9,3.42,1.1.64,2.82.32,3.42-.9h0Z" style="fill:#009444;"/><path d="M110.16,23.36c3.34-1.43,4.88-5.67,3.98-9.04-1.04-3.9-5-5.7-8.76-4.97-1.59.31-3.16,1.2-4.19,2.45-1.56,1.9-1.96,4.27-1.57,6.65.33,2,1.28,3.93,2.41,5.6,1.18,1.77,2.56,3.4,4.34,4.59,2,1.33,4.59,1.75,6.89.99s4.25-2.4,6.02-4.08c.95-.9.98-2.64,0-3.54s-2.52-.96-3.54,0c-.53.51-1.08.99-1.63,1.47-.59.51.2-.13-.17.14-.16.12-.33.24-.5.35-.33.22-.67.43-1.03.62-.14.07-.28.14-.43.2.42-.17-.06,0-.17.04-.19.06-.37.1-.56.15-.12.03-.45.01-.03,0-.31,0-.62.02-.93-.01.51.06.03-.01-.1-.05-.07-.02-.7-.22-.43-.12.34.12-.31-.16-.3-.15-.13-.07-.26-.15-.38-.22s-.25-.16-.37-.25c-.59-.39.2.18-.12-.1-.56-.49-1.05-1.02-1.53-1.58s.15.22-.11-.13c-.11-.15-.23-.31-.34-.47-.19-.26-.37-.53-.54-.81-.22-.35-.44-.72-.64-1.09-.08-.15-.16-.3-.23-.45,0,0-.32-.71-.16-.32-.28-.67-.51-1.4-.6-2.13.06.45.01.03.02-.05,0-.2-.01-.39,0-.59,0-.13.09-.62,0-.15.05-.23.11-.46.17-.69.02-.08.19-.41.02-.07.05-.11.11-.21.17-.31s.13-.19.19-.29c-.32.49-.13.16,0,.04.11-.09.21-.2.31-.3.14-.14.31-.14-.1.07.25-.13.5-.3.75-.43-.58.32.19-.05.39-.1.11-.03.23-.05.34-.08.5-.12-.15.02-.14.01.08-.09.76-.03.88-.02.07,0,.31,0,.35.03-.35-.05-.42-.06-.23-.02.09.02.17.03.25.06.11.03.22.07.33.1.52.12-.3-.21-.03-.03.2.14.46.27.67.39-.43-.24-.22-.19-.1-.06.08.09.21.25.31.31.25.15-.26-.47-.02-.02.08.15.17.3.26.45.19.33-.03-.11-.05-.12.05.02.14.45.15.5,0-.02.09.33.07.34-.04-.38-.05-.43-.02-.15v.17c.02.2.1.72-.02.88l.04-.32c-.01.09-.03.17-.05.26-.05.17-.1.34-.14.51-.04.16-.22.53.03-.02-.07.16-.15.32-.24.47-.06.1-.12.2-.18.3-.27.48.35-.35-.03.05-.08.08-.15.17-.24.25-.22.22-.34.27-.02.06-.3.2-.59.37-.91.51-1.21.52-1.57,2.38-.9,3.42.81,1.25,2.13,1.45,3.42.9h0Z" style="fill:#009444;"/><path d="M243.72,38.91c15.21-4.71,30.95-7.53,46.86-8.34,3.2-.16,3.22-5.16,0-5-16.34.83-32.56,3.68-48.19,8.52-3.06.95-1.76,5.78,1.33,4.82h0Z" style="fill:#009444;"/></svg>