<?xml version="1.0" encoding="UTF-8"?>
<svg id="Layer_1" data-name="Layer 1" xmlns="http://www.w3.org/2000/svg" viewBox="0 0 570.8 88.11">
  <defs>
    <style>
      .cls-1 {
        fill: #009444;
      }

      .cls-2 {
        fill: #8dc63f;
      }
    </style>
  </defs>
  <g>
    <path class="cls-2" d="M24.19,79.99c-.37,0-.72-.21-.89-.55l-5.91-11.67-4.85-9.22-4.34-8.81c-.29-.57-.56-1.13-.79-1.67-.17-.37-.34-.78-.51-1.2-.23-.55-.89-1.89-1.97-3.98-.17-.2-.47-.46-1.14-.54-.91-.11-1.58-.24-2.05-.39-.36-.12-.62-.43-.68-.81l-.07-.48c-.03-.24.02-.49.16-.7.46-.68,1.43-1.04,3.15-1.17l2.87-.19,1.67-.1.68-.08c2.35-.18,3.85-.26,4.64-.26.17,0,.31,0,.42.01.46.03.85.38.92.84.04.28.07.49.08.63.02.21.02.51,0,.91-.02.49-.39.9-.88.95l-2.49.29c.16.29.32.6.47.92l2.35,5.22,5.48,11.05c.79,1.67,1.12,2.33,1.27,2.58.69,1.26,1.57,3.03,2.62,5.24.31.64.99,1.95,2.08,3.99.7-1.54,1.57-3.63,2.61-6.25,1.04-2.61,1.73-4.49,2.04-5.6l-.13-.25-6.19-11.45c-.81-1.42-1.44-2.56-1.9-3.41-1.17-2.19-1.59-2.58-1.66-2.64h0s-.43-.15-2.09-.15c-.21,0-.69,0-.7,0-.05,0-.1,0-.15-.01l-.66-.1c-.2-.03-.38-.12-.53-.25-.37-.34-.58-.77-.62-1.26,0-.08,0-.15,0-.23.07-.43.28-.79.6-1.06.15-.12.33-.2.52-.22.67-.07,1.14-.12,1.42-.14l1.98-.09.92-.1,1.73-.13,1.49-.14,1.62-.12,2.83-.37c.24-.02.52-.03.88-.04l.43-.06c.13-.01.2-.01.26-.01.45,0,.84.12,1.15.37.47.37.6.82.63,1.13.02.29-.03.6-.14.92-.09.25-.28.46-.52.57-.41.19-1.04.35-1.98.51-.71.14-1.14.24-1.39.31.23.54.88,1.92,2.62,5.24l2.66,4.9c.68-1.81,1.5-4.18,2.45-7.08.66-1.98.76-2.93.72-3.38,0-.1-.04-.24-.26-.43,0,0,0,0,0,0-.03,0-.32-.11-1.19-.12l-.71-.04c-.09,0-.18-.02-.27-.05l-.57-.2c-.33-.12-.58-.4-.65-.74l-.05-.24s-.01-.09-.02-.13c-.02-.27.03-.57.17-.95.06-.15.14-.28.26-.39.33-.31.67-.49,1.02-.56.18-.04.54-.11,4.48-.19l2.04-.16,1.32-.07,2.12-.19s.12,0,.14,0c.19,0,.48.04.87.11.18.03.34.11.48.22.39.33.6.7.63,1.12.04.53-.15,1.02-.54,1.38-.3.29-.78.5-1.61.7-1.38.34-2.4.78-3.03,1.29-.36.31-.7.79-1,1.41l-1.83,5.01c-.39,1.44-.75,2.62-1.05,3.42-.13.53-.35,1.19-.69,2.01l-.88,2.52c.27.5.64,1.19,1.13,2.07l3.74,7.04c.17.31.66,1.17,1.47,2.58.33.57.64,1.12.93,1.66l1.25-4.11c.55-1.55,1.09-3.17,1.62-4.85l1.92-6.08,2.8-10.27c.26-1.11.47-2.22.61-3.28l.05-.48c.02-.12.04-.2.04-.26-.01-.01-.03-.03-.05-.04-.04-.02-.5-.22-2.71-.56-.04,0-.08-.01-.12-.03-.26-.07-.52-.19-.78-.35-.19-.12-.34-.31-.41-.52-.11-.32-.17-.59-.19-.82,0-.05,0-.09,0-.14v-.21c.05-.48.41-.87.89-.93.88-.11,1.44-.17,1.68-.19l2.41-.12,2.64-.23,2.33-.18s1-.01,1.01-.01c.48,0,.9.35.98.82l.05.3s.01.07.01.1c.01.17.01.43-.01.78-.02.36-.24.68-.57.84-1.86.88-2.36,1.21-2.49,1.31-.24.19-.42.38-.53.57-.06.11-.27.54-.84,2.21-.07.2-.5,1.76-1.5,5.56-.01.04-.03.09-.04.13-.21.5-.42,1.17-.62,2.02-.07.27-.22.75-.45,1.43l-.39,1.24-.27.89c-1.06,3.76-2.27,7.78-3.59,11.95l-2.62,9.35-1.06,3.58c-.1.35-.4.62-.76.7-.37.08-.65.12-.84.13-.14.01-.37.02-.66.02-.39,0-.75-.23-.91-.59-.32-.71-1.01-2.07-2.06-4.06-2.33-4.32-4.46-8.05-6.35-11.12-.78,1.86-1.69,4.21-2.71,6.99l-2.04,5.02c-.86,2.2-1.57,3.71-2.17,4.62-.17.25-.44.41-.74.44l-1.41.14s-.06,0-.1,0Z"/>
    <path class="cls-1" d="M58.87,35.62l.05.3c.01.14,0,.36-.01.64-1.44.68-2.33,1.16-2.68,1.43-.34.27-.6.56-.77.86-.17.3-.48,1.1-.92,2.4-.05.13-.56,2-1.52,5.62-.23.55-.45,1.27-.67,2.16-.06.25-.2.7-.42,1.35l-.4,1.26-.27.91c-1.07,3.8-2.27,7.77-3.58,11.93l-2.63,9.38-1.06,3.57c-.31.06-.55.1-.71.11-.14.01-.34.02-.6.02-.33-.73-1.02-2.1-2.09-4.12-2.77-5.13-5.22-9.38-7.37-12.75l-.32.64c-.9,2.05-1.96,4.75-3.19,8.11l-2.03,4.99c-.83,2.12-1.52,3.6-2.08,4.44l-1.41.14-5.91-11.67-4.85-9.24-4.32-8.79c-.29-.57-.55-1.11-.77-1.62-.17-.37-.34-.76-.49-1.16-.25-.61-.94-2-2.05-4.16-.42-.56-1.04-.89-1.87-.99-.83-.1-1.45-.22-1.85-.35l-.07-.48c.26-.39,1.06-.63,2.39-.73l2.86-.19,1.67-.1.73-.09c2.26-.17,3.77-.26,4.52-.26.14,0,.26,0,.35,0,.04.24.06.42.07.55.01.18.01.45,0,.8l-2.93.35c-.14.03-.33.1-.57.2-.07.21-.1.36-.09.47,0,.12.09.31.23.56.19.33.37.69.55,1.06l2.35,5.21,5.5,11.09c.64,1.36,1.07,2.23,1.29,2.62.67,1.23,1.54,2.96,2.6,5.19.37.77,1.24,2.43,2.61,4.97.07.16.22.41.43.76.81-1.55,1.97-4.24,3.48-8.07,1.18-2.95,1.91-4.97,2.17-6.07l-.29-.59-6.21-11.48c-.81-1.43-1.45-2.57-1.9-3.41-.95-1.77-1.61-2.77-2.01-3-.34-.2-1.21-.31-2.62-.31-.22,0-.45,0-.7,0l-.66-.1c-.18-.17-.28-.37-.3-.6.03-.18.11-.33.25-.44.66-.07,1.12-.12,1.39-.14l1.95-.09.98-.11,1.7-.13,1.51-.14,1.6-.12,2.89-.37c.19-.01.46-.02.84-.03l.49-.07s.09,0,.13,0c.23,0,.41.05.54.15.15.12.24.26.25.42.01.14-.02.31-.09.5-.32.15-.9.29-1.74.44-1.2.24-1.9.42-2.08.56-.19.14-.27.31-.26.51.03.39.98,2.36,2.85,5.93l3.69,6.79c.82-1.94,1.91-4.98,3.26-9.12.57-1.72.83-2.97.77-3.76-.03-.43-.24-.8-.61-1.12-.29-.22-.89-.34-1.83-.35l-.65-.04-.57-.2-.05-.24c0-.12.03-.3.11-.53.19-.18.37-.28.53-.32.31-.06,1.74-.12,4.3-.18l2.1-.16,1.3-.07,2.16-.2c.17,0,.42.04.75.1.18.15.27.3.28.44.02.22-.06.41-.22.57-.16.16-.55.31-1.16.46-1.54.38-2.68.88-3.42,1.49-.49.42-.91,1.01-1.26,1.75l-1.87,5.1c-.42,1.54-.77,2.7-1.07,3.48-.11.48-.33,1.12-.66,1.92l-1.04,2.99c.27.51.71,1.33,1.34,2.47l3.73,7.03c.17.31.67,1.18,1.49,2.61.82,1.43,1.52,2.75,2.09,3.97l.35-1.5.05-.16,1.51-4.98c.54-1.53,1.08-3.14,1.61-4.84l1.92-6.08,2.81-10.31c.28-1.18.5-2.32.64-3.41l.06-.49c.04-.23.06-.39.05-.49-.02-.28-.18-.53-.49-.74-.31-.21-1.35-.45-3.13-.73-.17-.05-.34-.13-.51-.24-.08-.24-.13-.43-.14-.57v-.21c.88-.11,1.42-.17,1.64-.19l2.38-.12,2.68-.24,2.31-.18h.93M58.87,33.62s-.01,0-.02,0h-.93s-.09.01-.13.02l-2.31.18-2.67.23-2.34.12s-.04,0-.05,0c-.26.02-.77.08-1.72.2-.62.08-1.15.43-1.46.94-.27-.22-.59-.37-.93-.42-.41-.07-.73-.11-.98-.12-.03,0-.07,0-.1,0-.06,0-.12,0-.18,0l-2.12.19-1.26.07-2.09.16c-3.98.08-4.35.16-4.62.22-.51.1-1.01.37-1.48.8-.1.09-.18.19-.26.29-.07-.06-.14-.12-.21-.18-.33-.26-.91-.58-1.77-.58-.09,0-.18,0-.28.01-.04,0-.08,0-.12.01l-.38.05c-.36,0-.64.02-.83.04-.03,0-.07,0-.1.01l-2.84.37-1.55.12-1.55.15-1.66.13s-.04,0-.06,0l-.92.1-1.89.09s-.04,0-.06,0c-.28.02-.76.07-1.45.14-.38.04-.75.19-1.05.44-.18.15-.34.31-.47.49-.34-.39-.83-.65-1.37-.68-.12,0-.29-.01-.48-.01-.81,0-2.34.09-4.68.26-.03,0-.05,0-.08,0l-.68.08-1.61.09-2.88.19c-1.49.11-3.1.39-3.92,1.61-.27.41-.39.9-.32,1.39l.07.48c.11.75.63,1.38,1.35,1.62.54.18,1.25.32,2.24.44.25.03.38.09.44.13,1.27,2.46,1.72,3.42,1.87,3.79.15.39.33.81.52,1.23.23.52.5,1.1.81,1.7l4.31,8.76s.02.03.02.05l4.85,9.24,5.89,11.64c.34.68,1.04,1.1,1.78,1.1.06,0,.13,0,.2,0l1.41-.14c.6-.06,1.14-.38,1.47-.88.64-.96,1.38-2.54,2.27-4.82l2.02-4.96s.02-.05.03-.07c.7-1.91,1.35-3.62,1.94-5.11,1.62,2.7,3.39,5.84,5.3,9.38,1.04,1.96,1.72,3.3,2.03,3.99.32.72,1.04,1.18,1.83,1.18.33,0,.59,0,.76-.02.23-.02.53-.06.94-.15.72-.15,1.31-.68,1.52-1.39l1.06-3.57,2.63-9.38c1.31-4.15,2.52-8.18,3.59-11.96l.26-.88.39-1.22c.22-.65.37-1.14.46-1.45.2-.81.39-1.44.58-1.89.03-.08.06-.17.09-.26,1.22-4.59,1.44-5.36,1.48-5.48,0,0,0-.01,0-.02.55-1.61.73-1.98.76-2.04.01-.02.08-.12.28-.28.05-.04.47-.32,2.29-1.18.66-.31,1.09-.95,1.14-1.67.03-.39.03-.68.01-.92,0-.07-.01-.14-.03-.21l-.05-.3c-.17-.95-1-1.65-1.97-1.65h0ZM42.73,41.33c.36-.28,1.1-.69,2.61-1.07,1-.24,1.61-.53,2.06-.95.18-.17.34-.36.46-.56.04.03.08.06.12.08.34.21.69.37,1.04.47.08.02.16.04.24.05.86.13,1.44.24,1.81.32-.13.96-.33,2.01-.58,3.08l-2.79,10.24-1.91,6.04c-.53,1.67-1.06,3.27-1.59,4.77-.01.03-.02.06-.03.09l-.57,1.87c-.5-.87-1.07-1.87-1.24-2.18l-3.73-7.02c-.38-.68-.68-1.25-.93-1.7l.73-2.11c.34-.82.57-1.49.71-2.05.3-.82.65-1.95,1.06-3.45l1.8-4.92c.22-.44.46-.78.71-1.01h0ZM30.41,41.25c.06-.01.11-.02.17-.03.98-.17,1.69-.36,2.18-.58.31-.14.57-.35.77-.61.17.13.36.24.57.31l.57.2c.17.06.35.1.53.11l.65.04s.07,0,.11,0c.18,0,.33,0,.45.02-.05.43-.2,1.22-.66,2.58-.62,1.89-1.18,3.55-1.68,4.98l-1.61-2.97c-1.04-1.98-1.67-3.24-2.06-4.05h0ZM13.74,42.64l1.09-.13c.7-.08,1.28-.52,1.57-1.12.02.02.04.04.06.06.29.27.66.45,1.06.51l.66.1c.1.01.2.02.29.02.01,0,.03,0,.04,0,.23,0,.45,0,.66,0,.85,0,1.32.04,1.57.07.2.26.6.87,1.3,2.18.49.9,1.13,2.06,1.93,3.45l6.1,11.29c-.28.89-.82,2.44-1.9,5.12-.66,1.67-1.25,3.12-1.77,4.34-.53-1.01-.89-1.71-1.09-2.13-1.06-2.23-1.95-4.01-2.64-5.28-.14-.26-.46-.89-1.23-2.52l-5.5-11.09-2.2-4.87h0Z"/>
  </g>
  <g>
    <path class="cls-2" d="M62.06,75.48c-.15,0-.36-.02-.64-.07-.22-.04-.42-.16-.57-.33-.25-.3-.4-.61-.42-.93-.03-.33.03-1.15,1.08-1.68.1-.06.17-.1,3.27-1.01.56-.15.69-.29.69-.29.12-.18.28-.55.21-1.46-.08-1.57-.38-5.76-.92-12.82-.13-1.71-.26-2.17-.3-2.25,0,0,0,0,0,0-.01,0-.14-.13-.48-.34-.16-.1-.73-.35-2.53-.61-.48-.07-.84-.47-.86-.95l-.04-.9c-.02-.43.24-.83.65-.98,1.6-.6,1.9-.74,1.96-.77.66-.35,1.33-.86,2.02-1.53.69-.66,1.26-1.4,1.7-2.18.14-.24.37-.42.64-.48.31-.08.56-.12.74-.13h.46c.49,0,.9.36.98.84.16,1.01.26,1.73.3,2.2,0,.11.02.58.04,1.43l.12,1.56.7,8.76.62,9.3c.03.71.18.88.18.88.01,0,.36.24,1.95.55.88.17,1.53.32,2,.46.26.08.47.26.59.49.14.26.21.5.23.74.02.31-.05.63-.21.98-.16.33-.49.55-.85.57-.81.04-1.86.07-3.14.08h-1.09c-1.1,0-1.86.01-2.25.04-.37.03-3.77.4-4.89.53-.58.06-1.14.15-1.67.27-.05,0-.09.02-.14.02-.02,0-.1,0-.13,0ZM65.63,40.26c-.9,0-1.69-.29-2.37-.86-.76-.65-1.19-1.52-1.27-2.61-.07-.94.25-1.82.92-2.55.66-.72,1.5-1.12,2.5-1.19.1,0,.21-.01.31-.01.9,0,1.73.3,2.47.9.84.68,1.29,1.49,1.36,2.4.07.91-.26,1.78-.98,2.59-.71.8-1.59,1.24-2.61,1.32-.11,0-.22.01-.32.01Z"/>
    <path class="cls-1" d="M65.72,34.04c.67,0,1.28.23,1.83.68.62.5.95,1.07,1,1.7.05.63-.19,1.25-.73,1.85-.53.6-1.18.93-1.94.99-.08,0-.17,0-.25,0-.66,0-1.23-.21-1.72-.62-.55-.47-.86-1.11-.92-1.92-.05-.67.17-1.27.65-1.79.49-.53,1.1-.82,1.84-.87.08,0,.16,0,.23,0M68.35,46.77h.37c.16.97.25,1.68.29,2.12,0,.1.02.56.04,1.37l.12,1.61.7,8.76.61,9.29c.04.75.2,1.26.49,1.54.29.27,1.11.54,2.45.81.84.16,1.47.31,1.89.44.07.14.11.26.12.36,0,.12-.03.28-.12.47-.8.04-1.84.07-3.1.08-.38,0-.74,0-1.06,0-1.13,0-1.92.02-2.35.05-.27.02-1.91.2-4.92.53-.61.07-1.21.16-1.78.29-.02,0-.03,0-.05,0-.1,0-.25-.02-.45-.06-.11-.13-.17-.25-.18-.35-.02-.28.16-.52.53-.71.08-.05,1.11-.36,3.09-.94.65-.17,1.06-.41,1.25-.71.32-.45.44-1.14.37-2.08-.08-1.56-.38-5.84-.92-12.82-.11-1.4-.23-2.26-.38-2.6-.12-.23-.41-.49-.88-.77-.47-.28-1.43-.53-2.9-.74l-.04-.9c1.31-.49,2.01-.77,2.11-.84.72-.38,1.45-.94,2.21-1.67.76-.73,1.39-1.54,1.88-2.42.24-.06.44-.09.58-.11M65.72,32.04c-.13,0-.26,0-.39.01-1.24.09-2.33.62-3.16,1.51-.86.93-1.27,2.08-1.18,3.3.1,1.34.66,2.48,1.62,3.29.85.72,1.89,1.1,3.02,1.1.13,0,.26,0,.4-.02,1.28-.1,2.41-.67,3.29-1.66,1.12-1.27,1.29-2.51,1.23-3.32-.06-.82-.41-2.02-1.73-3.1-.92-.75-1.96-1.13-3.1-1.13h0ZM68.35,44.77c-.05,0-.11,0-.16,0-.25.02-.55.07-.89.16-.54.13-1,.48-1.27.97-.39.7-.91,1.36-1.52,1.95-.63.6-1.22,1.06-1.77,1.35,0,0-.02,0-.02.01-.11.05-.5.21-1.84.71-.81.3-1.33,1.09-1.3,1.96l.04.9c.04.96.76,1.76,1.71,1.9,1.71.25,2.15.47,2.17.48.04.02.07.04.1.06.05.27.12.8.19,1.74.53,6.95.84,11.25.91,12.77,0,.02,0,.04,0,.05.02.32.01.53,0,.66-.04.01-.08.03-.13.04-3.08.9-3.31.98-3.55,1.12-1.06.57-1.64,1.54-1.56,2.62.04.53.26,1.04.66,1.5.3.35.7.58,1.15.67.33.06.59.09.82.09.07,0,.14,0,.2,0,.09,0,.19-.02.28-.04.49-.11,1.02-.19,1.56-.25,3.91-.43,4.73-.51,4.86-.52.26-.02.85-.04,2.2-.04.32,0,.67,0,1.05,0,1.31-.01,2.38-.04,3.21-.09.73-.04,1.39-.47,1.7-1.14.24-.5.34-1,.31-1.48-.03-.38-.14-.75-.34-1.13-.25-.48-.68-.83-1.19-.99-.5-.15-1.19-.31-2.11-.49-.65-.13-1.06-.24-1.31-.32,0-.05,0-.1-.01-.16l-.62-9.32-.7-8.79-.12-1.55c-.03-1.22-.04-1.35-.05-1.42-.04-.51-.14-1.26-.31-2.29-.16-.96-.98-1.67-1.96-1.68h-.37s0,0-.01,0h0Z"/>
  </g>
  <g>
    <path class="cls-2" d="M87.68,74.25c-1.6,0-3.27-.45-4.96-1.32-1.93-1-3.48-2.5-4.62-4.45-1.12-1.92-1.77-3.96-1.93-6.04-.14-1.86.04-3.68.55-5.43.51-1.75,1.25-3.26,2.22-4.49.62-.8,1.52-1.63,2.67-2.45,1.17-.83,2.15-1.37,2.98-1.64,2.51-.85,3.4-.99,3.86-1.03.68-.05,1.35-.08,1.98-.08,2,0,3.76.26,5.25.79l-.25-2.92-.48-6.74c-.18-2.37-.57-2.85-.62-2.9-.05-.05-.53-.49-3.18-.98-.16-.03-.38-.07-.69-.13-.45-.08-.78-.45-.82-.91l-.03-.33c-.02-.26-.02-.54.01-.84.04-.45.38-.82.82-.9,2.69-.48,5.01-1.13,6.9-1.92.09-.04.19-.06.29-.07l1.57-.15s.06,0,.1,0c.49,0,.92.37.99.87.19,1.41.35,2.98.48,4.67l.77,11.73,1.22,13.16.45,7.07c.08,1.08.18,1.56.24,1.75.17.08.54.17,1.29.17.21,0,.43,0,.67-.02.26-.02.62-.03,1.07-.03h.17c.52,0,.95.41.99.93l.04.55c.01.18.02.37,0,.58-.02.42-.3.79-.71.91-.64.2-1.3.38-1.99.56l-4.4,1.19c-.72.19-1.29.3-1.75.33-.03,0-.05,0-.08,0-.52,0-.96-.4-1-.92l-.11-1.5c-.08.04-.16.08-.25.12-3.21,1.63-6.26,2.57-9.07,2.79-.22.02-.44.03-.66.03ZM90.04,50.74c-.22,0-.44,0-.66.03-2.08.16-3.74,1.07-5.07,2.78-1.34,1.72-1.89,4.24-1.64,7.5.22,2.86,1.17,5,2.9,6.55,1.54,1.37,3.28,2.04,5.35,2.04h0c.24,0,.49,0,.75-.03,1.41-.11,2.68-.39,3.8-.85.95-.39,1.48-.69,1.77-.88-.05-1.49-.22-4.13-.5-7.87-.35-4.54-.74-5.97-.94-6.43-.31-.7-1.08-1.38-2.29-2.01-1.06-.55-2.22-.83-3.44-.83Z"/>
    <path class="cls-1" d="M99.3,30.31c.19,1.37.35,2.91.48,4.61l.77,11.72,1.22,13.19.44,7.04c.11,1.44.27,2.24.49,2.41.36.31,1.04.46,2.03.46.23,0,.47,0,.73-.02.26-.02.6-.03,1.03-.03.05,0,.1,0,.15,0l.04.55c.01.14.01.29,0,.46-.63.19-1.27.37-1.94.55l-4.41,1.19c-.65.17-1.17.27-1.56.3l-.22-2.92c-.34.13-.87.37-1.59.73-3.11,1.58-6.01,2.48-8.7,2.68-.19.01-.39.02-.58.02-1.45,0-2.95-.4-4.5-1.21-1.76-.92-3.17-2.27-4.22-4.07-1.05-1.8-1.64-3.67-1.79-5.62-.13-1.74.04-3.43.51-5.07.48-1.64,1.16-3.02,2.04-4.15.56-.74,1.39-1.49,2.47-2.25,1.08-.77,1.98-1.27,2.71-1.51,1.8-.61,3-.93,3.62-.98.66-.05,1.3-.08,1.91-.08,1.95,0,3.62.26,5.03.77.57.22,1.01.37,1.31.45l-.04-.88-.3-3.56-.48-6.73c-.14-1.87-.44-3.04-.89-3.51-.45-.48-1.69-.9-3.73-1.28-.15-.03-.38-.07-.69-.13l-.03-.34c-.02-.2-.01-.43.01-.67,2.78-.5,5.14-1.16,7.11-1.98l1.57-.15M90.9,70.64c.27,0,.54-.01.82-.03,1.52-.12,2.88-.42,4.1-.93,1.22-.5,2.02-.95,2.4-1.35-.02-1.37-.19-4.17-.52-8.4-.27-3.59-.61-5.84-1.02-6.76-.41-.92-1.32-1.75-2.74-2.48-1.21-.63-2.51-.94-3.91-.94-.24,0-.49,0-.74.03-2.36.18-4.28,1.23-5.79,3.16-1.5,1.93-2.12,4.66-1.85,8.19.24,3.1,1.31,5.51,3.23,7.22,1.71,1.53,3.72,2.3,6.01,2.3M99.3,28.31c-.06,0-.13,0-.19,0l-1.57.15c-.2.02-.4.07-.58.15-1.82.76-4.07,1.39-6.69,1.86-.89.16-1.56.89-1.64,1.79-.03.36-.04.69-.01,1l.03.34c.07.91.74,1.65,1.64,1.81.3.05.52.1.66.12,1.7.31,2.4.59,2.64.71.09.23.27.85.38,2.27l.48,6.72.13,1.51c-1.26-.29-2.64-.43-4.13-.43-.66,0-1.35.03-2.06.08-.55.04-1.51.2-4.11,1.08-.91.3-1.97.88-3.23,1.77-1.26.89-2.2,1.76-2.9,2.67-1.03,1.31-1.83,2.93-2.38,4.81-.54,1.86-.74,3.81-.59,5.78.17,2.24.86,4.42,2.06,6.47,1.24,2.12,2.93,3.75,5.03,4.84,1.84.95,3.67,1.44,5.43,1.44.25,0,.49,0,.73-.03,2.62-.2,5.43-.99,8.36-2.36v.02c.08,1.05.96,1.85,1.99,1.85.05,0,.1,0,.15,0,.52-.04,1.15-.16,1.92-.36l4.42-1.2c.67-.17,1.36-.37,2-.56.81-.25,1.38-.97,1.42-1.82.01-.25,0-.47,0-.7l-.04-.55c-.08-1.04-.94-1.84-1.98-1.85h-.16c-.48,0-.87.01-1.18.04-.19.01-.39.02-.58.02-.17,0-.31,0-.43-.01-.03-.24-.07-.56-.1-1l-.44-7.01s0-.04,0-.06l-1.22-13.16-.77-11.69c-.13-1.73-.3-3.33-.49-4.75-.14-1-.99-1.73-1.98-1.73h0ZM90.9,68.64c-1.8,0-3.33-.58-4.68-1.79-1.53-1.37-2.37-3.29-2.56-5.88-.23-3,.25-5.29,1.43-6.81,1.15-1.48,2.58-2.26,4.36-2.4.2-.02.39-.02.59-.02,1.08,0,2.06.23,2.98.72,1.31.68,1.71,1.25,1.84,1.53.11.25.5,1.42.86,6.1.25,3.27.41,5.7.48,7.23-.26.14-.62.31-1.13.51-1.02.42-2.2.68-3.49.78-.23.02-.45.03-.67.03h0Z"/>
  </g>
  <g>
    <path class="cls-2" d="M119.12,87.11c-2.19,0-4.03-.26-5.47-.77-2.02-.71-3.46-1.55-4.4-2.55-.98-1.04-1.52-2.15-1.61-3.29-.08-1.01.3-2.2,1.14-3.64.79-1.35,2.39-2.76,4.88-4.28-.14-.04-.28-.09-.43-.14-.06-.02-.11-.04-.16-.07-2.32-1.24-3.04-1.84-3.37-2.18-.62-.63-.96-1.36-1.02-2.19-.06-.78.14-1.47.59-2.02.54-.65,1.48-1.23,2.98-1.84.5-.2.96-.4,1.39-.59-3.26-1.8-5.05-4.49-5.32-8-.23-2.99.66-5.63,2.64-7.85,1.97-2.21,4.64-3.46,7.94-3.72.39-.03.76-.04,1.14-.04,1.06,0,2.07.12,3.02.36.74.17,1.82.62,3.27,1.38.92.47,1.23.62,1.34.67.15.03.31.04.49.04.09,0,.18,0,.27,0,.17-.01.72-.09,2.4-.44,1.82-.38,2.29-.44,2.5-.46.11,0,.22-.01.33-.01.51,0,.98.1,1.38.3.15.07.28.18.37.32.39.54.62,1.37.71,2.52.06.76-.22,1.24-.47,1.5-.34.37-.81.57-1.39.62-.11,0-.23.01-.35.01-.66,0-1.58-.11-2.8-.34-.49-.09-.88-.16-1.18-.21.58,1.25.92,2.45,1.01,3.58.12,1.62-.26,3.33-1.15,5.1-.89,1.78-2.21,3.2-3.94,4.23-1.69,1.01-3.47,1.59-5.28,1.73-.13,0-.49.03-1.09.05-1.67.13-3.22.67-4.58,1.62-.33.24-.49.41-.56.51.08.05.24.17.57.32,1.43.62,3.94.94,7.44.94,1.03,0,2.15-.03,3.34-.08.42-.02.81-.03,1.2-.03,1.97,0,3.53.22,4.79.67,1.55.56,2.79,1.48,3.66,2.75.85,1.24,1.34,2.57,1.45,3.96.14,1.87-.37,3.66-1.52,5.33-1.12,1.62-2.9,3.02-5.29,4.14-2.34,1.09-5.09,1.77-8.18,2-.93.07-1.82.11-2.65.11ZM125.98,73.52c-3.45,0-5.57.03-6.32.09-1.98.15-3.65.92-5.1,2.35-1.04,1.03-1.5,2.15-1.4,3.44.09,1.16.74,2.16,1.99,3.06,1.48.95,3.33,1.45,5.46,1.45.37,0,.75-.02,1.14-.04,1.93-.15,3.85-.6,5.72-1.35,1.78-.71,3.05-1.62,3.78-2.71.71-1.06,1.04-2.01.98-2.83-.04-.49-.2-.96-.5-1.45-.3-.49-.67-.86-1.14-1.16-.49-.3-1.15-.53-1.96-.68-.57-.11-1.36-.17-2.37-.17h-.28ZM119.21,47.07c-.13,0-.26,0-.39.01-1.63.12-2.78.76-3.51,1.94-.78,1.27-1.08,3.26-.88,5.93.13,1.67.49,3.06,1.06,4.11.56,1.02,1.23,1.72,2.07,2.16.74.38,1.47.58,2.17.58.1,0,.2,0,.29-.01,1.5-.12,2.67-.76,3.58-1.97.92-1.23,1.3-3.12,1.11-5.62-.19-2.52-.88-4.4-2.05-5.57-1.04-1.05-2.17-1.56-3.47-1.56Z"/>
    <path class="cls-1" d="M120.03,44.93c.98,0,1.9.11,2.78.33.67.15,1.69.59,3.05,1.3.86.44,1.37.69,1.51.74.24.05.5.08.77.08.11,0,.23,0,.35-.01.35-.03,1.19-.18,2.53-.45,1.33-.28,2.12-.42,2.37-.44.09,0,.17,0,.25,0,.36,0,.68.07.94.2.28.39.45,1.06.52,2.01.02.32-.04.57-.21.75-.16.18-.41.28-.74.3-.09,0-.18,0-.28,0-.59,0-1.46-.11-2.61-.32-1.25-.23-2.04-.35-2.38-.35-.03,0-.06,0-.08,0-.1,0-.3.04-.58.11,1.02,1.68,1.58,3.24,1.69,4.67.11,1.44-.24,2.97-1.05,4.58-.81,1.61-1.99,2.89-3.56,3.82-1.56.93-3.18,1.46-4.84,1.59-.12,0-.47.03-1.05.05-1.89.14-3.6.74-5.11,1.8-.73.52-1.07.99-1.04,1.39.03.43.43.81,1.21,1.16,1.58.69,4.2,1.03,7.85,1.03,1.05,0,2.18-.03,3.39-.08.4-.02.78-.02,1.15-.02,1.83,0,3.31.2,4.45.61,1.36.49,2.42,1.28,3.18,2.37.76,1.09,1.18,2.25,1.27,3.47.13,1.64-.32,3.21-1.35,4.69-1.02,1.49-2.65,2.75-4.89,3.8-2.24,1.05-4.85,1.68-7.83,1.91-.91.07-1.77.1-2.57.1-2.09,0-3.8-.24-5.14-.71-1.85-.65-3.18-1.42-4.01-2.29-.82-.88-1.27-1.77-1.34-2.68-.06-.79.28-1.81,1.01-3.06.73-1.25,2.34-2.62,4.84-4.12.73-.44,1.23-.76,1.51-.94-.26-.1-1.07-.38-2.45-.82-1.64-.87-2.68-1.54-3.13-2-.45-.45-.69-.98-.74-1.56-.04-.53.08-.97.36-1.31.42-.5,1.28-1.02,2.58-1.54,1.3-.53,2.37-1.03,3.21-1.5-.28-.16-.72-.39-1.33-.69-3.21-1.63-4.93-4.1-5.19-7.41-.21-2.72.59-5.09,2.39-7.11,1.8-2.03,4.22-3.15,7.27-3.38.36-.03.71-.04,1.06-.04M119.74,62.79c.12,0,.25,0,.37-.01,1.79-.14,3.22-.92,4.3-2.36,1.08-1.44,1.51-3.54,1.3-6.3-.21-2.78-.99-4.85-2.33-6.2-1.22-1.24-2.62-1.85-4.18-1.85-.15,0-.31,0-.46.02-1.95.15-3.38.95-4.28,2.41-.9,1.46-1.24,3.64-1.02,6.54.14,1.82.53,3.33,1.18,4.51.65,1.18,1.48,2.04,2.49,2.56.89.46,1.76.69,2.63.69M120.61,84.91c.4,0,.8-.02,1.22-.05,2.04-.15,4.04-.63,6.02-1.42,1.98-.79,3.39-1.82,4.23-3.08.84-1.26,1.23-2.41,1.15-3.47-.05-.65-.26-1.28-.64-1.89-.38-.61-.86-1.11-1.46-1.48-.6-.37-1.37-.65-2.31-.82-.62-.12-1.47-.18-2.55-.18-.09,0-.19,0-.29,0-3.47,0-5.6.03-6.38.09-2.2.17-4.11,1.05-5.72,2.64-1.25,1.24-1.82,2.65-1.7,4.23.11,1.46.91,2.73,2.4,3.79,1.69,1.09,3.7,1.64,6.04,1.64M120.03,42.93h0c-.4,0-.81.02-1.21.05-3.56.27-6.46,1.63-8.61,4.05-2.17,2.43-3.14,5.32-2.89,8.59.24,3.18,1.68,5.82,4.2,7.74-1.46.62-2.42,1.25-3.02,1.97-.62.76-.9,1.71-.82,2.75.08,1.05.53,2.02,1.31,2.81.35.36.97.88,2.64,1.82-1.79,1.25-3.01,2.45-3.7,3.64-.95,1.62-1.37,3.01-1.28,4.23.1,1.37.73,2.68,1.87,3.9,1.06,1.13,2.63,2.04,4.8,2.81,1.57.56,3.47.83,5.81.83.85,0,1.76-.04,2.72-.11,3.21-.24,6.07-.95,8.52-2.09,2.56-1.2,4.47-2.7,5.69-4.48,1.29-1.86,1.86-3.88,1.7-5.98-.12-1.57-.66-3.06-1.62-4.45-1-1.44-2.39-2.49-4.15-3.12-1.36-.49-3.04-.73-5.12-.73-.4,0-.81,0-1.23.03-1.19.06-2.3.08-3.31.08-2.95,0-4.8-.23-5.95-.51.95-.49,2-.79,3.16-.88.59-.02.95-.04,1.08-.05,1.98-.15,3.9-.78,5.72-1.87,1.89-1.13,3.34-2.69,4.32-4.64.97-1.93,1.39-3.83,1.25-5.62-.05-.72-.2-1.46-.43-2.21,1.01.17,1.8.25,2.4.25.16,0,.3,0,.43-.02,1.05-.08,1.7-.55,2.05-.94.38-.41.82-1.14.73-2.26-.1-1.36-.39-2.32-.89-3.02-.19-.27-.45-.49-.75-.63-.54-.27-1.15-.4-1.82-.4-.13,0-.27,0-.4.02-.26.02-.76.09-2.62.48-1.79.37-2.21.41-2.27.42-.06,0-.13,0-.2,0-.07,0-.14,0-.2,0-.15-.07-.49-.23-1.17-.59-1.54-.81-2.66-1.27-3.52-1.47-.99-.25-2.09-.38-3.22-.38h0ZM119.74,60.79c-.55,0-1.11-.15-1.71-.46-.66-.34-1.2-.91-1.65-1.75-.51-.93-.83-2.17-.94-3.71-.23-3.06.27-4.59.73-5.33.35-.57,1.02-1.33,2.74-1.47.1,0,.21-.01.31-.01,1.03,0,1.9.4,2.76,1.26.99,1,1.59,2.67,1.76,4.95.17,2.25-.13,3.91-.91,4.94-.73.98-1.64,1.48-2.86,1.57-.07,0-.14,0-.22,0h0ZM115.7,81.62c-1.44-1.05-1.51-1.98-1.53-2.29-.07-.99.28-1.83,1.11-2.65,1.28-1.26,2.74-1.93,4.47-2.07.5-.04,1.98-.08,6.23-.08h.29c1.18,0,1.83.08,2.16.14.71.13,1.26.32,1.64.55.33.21.6.48.82.83.21.34.33.67.35,1,.04.58-.24,1.34-.81,2.2-.61.91-1.73,1.7-3.32,2.33-1.78.71-3.6,1.15-5.43,1.29-.36.03-.72.04-1.07.04-1.94,0-3.55-.42-4.91-1.29h0Z"/>
  </g>
  <g>
    <path class="cls-2" d="M149.48,69.5c-1.29,0-2.59-.21-3.88-.63-2.37-.8-4.31-2.24-5.78-4.29-1.46-2.03-2.31-4.57-2.54-7.56-.08-.98,0-2.2.26-3.71.25-1.51.78-3.15,1.57-4.87.57-1.23,1.31-2.29,2.22-3.12,1.24-1.14,2.32-1.94,3.31-2.44,1.41-.71,3.08-1.14,4.97-1.28.4-.03.79-.05,1.17-.05,1.57,0,2.96.27,4.1.82,1.87.86,3.34,2.07,4.36,3.6,1.02,1.52,1.58,2.98,1.69,4.34l.03.43c.04.55-.37,1.03-.91,1.07l-12.36,1.03-2.35.18c-.7.05-1.41.13-2.12.23-.02.16-.03.24-.03.28l.04.23s.01.07.01.1l.02.3.08,1.51c.08,1.07.56,2.44,1.42,4.04.84,1.57,1.92,2.7,3.3,3.44,1.21.65,2.7.98,4.41.98.22,0,.45,0,.69-.02,1-.13,1.85-.33,2.45-.57.41-.17,1.18-.58,2.57-1.62l2.04-1.92c.19-.18.43-.27.69-.27.1,0,.19.01.29.04.34.1.6.38.68.73l.28,1.2c.01.05.02.1.02.15.01.18.02.37,0,.58,0,.19-.07.36-.17.52-.9,1.32-2.09,2.51-3.52,3.55-1.43,1.03-2.91,1.83-4.42,2.38-.78.27-1.99.46-3.7.59-.3.02-.6.03-.9.03ZM150.21,44.98c-.18,0-.36,0-.55.02-2.09.16-3.66,1.03-4.79,2.66-.57.81-.94,1.56-1.11,2.24l.28-.02c1.01-.08,4.13-.48,9.28-1.19.56-.07.85-.14.99-.17.11-.16.12-.23.12-.23-.04-.43-.25-.98-.64-1.62-.36-.59-.88-1.02-1.57-1.31-.59-.25-1.27-.38-2.01-.38Z"/>
    <path class="cls-1" d="M150.78,42.52c1.43,0,2.66.24,3.68.72,1.71.79,3.03,1.87,3.95,3.25.92,1.38,1.43,2.67,1.52,3.86l.03.43-12.37,1.03-2.34.18c-.95.07-1.91.19-2.89.35-.14.62-.2,1.05-.18,1.27l.05.3.02.3.08,1.49c.09,1.24.61,2.72,1.54,4.46.93,1.74,2.16,3.02,3.71,3.85,1.37.74,3,1.1,4.89,1.1.24,0,.49,0,.73-.02,1.17-.15,2.09-.36,2.78-.64.68-.28,1.63-.87,2.84-1.78l2.08-1.96.28,1.2c.01.14.01.29,0,.46-.84,1.23-1.93,2.33-3.28,3.31-1.35.98-2.74,1.73-4.17,2.25-.68.24-1.83.42-3.43.54-.27.02-.55.03-.82.03-1.19,0-2.37-.19-3.56-.58-2.17-.73-3.93-2.04-5.28-3.93-1.35-1.88-2.14-4.24-2.35-7.06-.07-.89.01-2.05.25-3.48.23-1.43.73-2.96,1.49-4.61.52-1.12,1.18-2.06,1.99-2.81,1.16-1.07,2.19-1.83,3.08-2.29,1.29-.65,2.83-1.04,4.59-1.18.38-.03.74-.04,1.09-.04M142.67,50.99l1.45-.11c1.05-.08,4.16-.48,9.34-1.2.82-.1,1.32-.22,1.49-.36.34-.41.5-.77.48-1.08-.05-.63-.31-1.33-.78-2.1-.47-.77-1.15-1.34-2.04-1.71-.72-.3-1.52-.45-2.4-.45-.2,0-.41,0-.63.02-2.39.18-4.23,1.21-5.54,3.08-1.01,1.42-1.47,2.72-1.38,3.9M150.78,40.52h0c-.4,0-.82.02-1.24.05-2.02.15-3.82.62-5.34,1.38-1.08.55-2.24,1.4-3.54,2.6-1.01.94-1.83,2.09-2.45,3.45-.83,1.8-1.39,3.53-1.65,5.13-.26,1.6-.35,2.89-.27,3.95.24,3.17,1.16,5.89,2.72,8.07,1.6,2.22,3.7,3.79,6.26,4.66,1.4.46,2.81.69,4.2.69.32,0,.65-.01.97-.04,1.82-.14,3.07-.34,3.93-.64,1.62-.58,3.19-1.43,4.7-2.52,1.53-1.11,2.8-2.39,3.76-3.8.21-.31.33-.66.35-1.04.01-.25,0-.47,0-.7,0-.1-.02-.21-.05-.31l-.28-1.2c-.16-.7-.68-1.26-1.37-1.46-.19-.06-.39-.09-.58-.09-.5,0-1,.19-1.37.54l-2,1.88c-1.34,1-2.02,1.34-2.3,1.46-.35.14-1.01.34-2.2.5-.19,0-.37.01-.56.01-1.55,0-2.87-.29-3.94-.87-1.2-.65-2.15-1.64-2.89-3.03-.99-1.84-1.25-3.01-1.3-3.66l-.08-1.45h0c.39-.05.77-.09,1.15-.12l2.34-.18,12.38-1.03c1.09-.09,1.91-1.05,1.83-2.14l-.03-.43c-.12-1.54-.74-3.16-1.85-4.82-1.12-1.68-2.73-3.01-4.78-3.95-1.26-.6-2.79-.9-4.51-.9h0ZM145.36,48.74c.1-.16.21-.32.33-.49.97-1.4,2.26-2.11,4.06-2.25.16-.01.32-.02.47-.02.61,0,1.16.1,1.63.3.5.21.85.5,1.11.91.12.19.21.36.27.5,0,0,0,0,0,0-3.66.51-6.29.86-7.86,1.05h0Z"/>
  </g>
  <g>
    <path class="cls-2" d="M173.55,67.52c-1.24,0-2.34-.28-3.27-.82-1.12-.66-1.88-1.51-2.27-2.54-.35-.93-.62-2.74-.85-5.7l-.4-6.87-.28-3.26-.09-1.22c-.02-.24-.04-.48-.07-.72l-2.07.24-.16.04s-.08.01-.13.02c-.02,0-.15,0-.17,0-.41,0-.75-.11-1.03-.33-.34-.26-.55-.64-.58-1.06-.04-.52.11-.98.43-1.35.2-.23.56-.5,1.65-1.06.42-.21.93-.62,1.51-1.21.6-.61,1.1-1.27,1.48-1.97.11-.23.36-.82.79-2.21.27-.88.48-1.51.63-1.88.14-.37.49-.62.89-.64,0,0,.99-.04,1-.04.5,0,.93.38.99.88l.34,2.88.17,2.82c.57-.05,1.48-.16,2.72-.33.96-.14,1.92-.24,2.82-.31.42-.03,1.04-.07,1.88-.11.02,0,.03,0,.05,0,.48,0,.9.34.98.82.08.44.13.8.15,1.07.03.34,0,.81-.1,1.47-.06.47-.45.82-.91.86l-.52.04-4.74.51-2.15.22c-.02.26-.02.54,0,.84l.44,4.54.55,8.06c.19,2.53.68,3.3.88,3.52.36.4.8.58,1.42.58.09,0,.17,0,.26,0,.26-.02.97-.13,2.77-.68.13-.04.55-.22,1.37-.94.16-.14.37-.23.58-.24l.28-.02s.11,0,.14,0c.39,0,.75.13,1.04.37.33.28.52.66.55,1.11,0,.05,0,.1,0,.14v.21c-.03.2-.1.4-.23.56-.9,1.14-1.99,2.01-3.24,2.6-1.22.57-2.85.94-4.85,1.09-.24.02-.47.03-.7.03Z"/>
    <path class="cls-1" d="M170.56,35.92l.34,2.88.22,3.75c.39,0,.64-.02.74-.03.53-.04,1.55-.16,3.04-.35.96-.14,1.88-.24,2.77-.3.41-.03,1.03-.07,1.85-.11.07.4.12.73.14.97.02.26,0,.68-.09,1.26l-.52.04-4.77.52-2.37.24-.55.1c-.13.52-.16,1.11-.11,1.78l.44,4.56.55,8.03c.16,2.11.54,3.49,1.15,4.14.52.6,1.24.89,2.15.89.11,0,.22,0,.34-.01.53-.04,1.53-.28,2.99-.72.44-.14,1.03-.52,1.74-1.14l.28-.02s.04,0,.07,0c.16,0,.29.04.39.14.12.1.19.24.2.43v.22c-.83,1.02-1.79,1.79-2.89,2.32-1.11.52-2.61.86-4.5,1-.21.02-.42.02-.62.02-1.07,0-1.99-.23-2.77-.68-.92-.54-1.54-1.22-1.84-2.03-.31-.81-.57-2.62-.79-5.42l-.4-6.85-.28-3.28-.09-1.22c-.04-.57-.11-1.13-.19-1.7h-.53s-2.52.29-2.52.29l-.24.05s-.07,0-.1,0c-.18,0-.32-.04-.42-.12-.12-.09-.19-.21-.2-.35-.02-.24.04-.45.19-.61.14-.16.59-.44,1.35-.82.52-.26,1.11-.73,1.77-1.4.66-.67,1.21-1.4,1.65-2.19.22-.42.51-1.22.87-2.39.27-.86.47-1.46.61-1.82l.96-.04M170.57,33.92s-.06,0-.09,0l-.96.04c-.79.04-1.49.54-1.78,1.28-.16.41-.37,1.05-.65,1.95-.42,1.35-.65,1.87-.73,2.05-.34.61-.78,1.19-1.3,1.72-.66.67-1.07.93-1.25,1.02-1.23.63-1.66.96-1.95,1.29-.49.56-.73,1.3-.68,2.08.06.72.41,1.35.98,1.79.31.24.85.53,1.63.53.08,0,.16,0,.25,0,.08,0,.16-.02.24-.03l.16-.03.96-.11.07.9.28,3.28.4,6.83c.3,4.01.65,5.32.91,6.02.47,1.24,1.38,2.26,2.7,3.04,1.09.64,2.36.96,3.79.96.25,0,.51,0,.77-.03,2.15-.16,3.85-.55,5.2-1.19,1.38-.65,2.59-1.62,3.59-2.88.25-.32.4-.71.43-1.11v-.22c.02-.1.02-.19.01-.29-.06-.72-.38-1.36-.91-1.8-.46-.39-1.05-.6-1.68-.6-.07,0-.14,0-.22,0l-.27.02c-.43.03-.84.2-1.17.49-.71.62-1.01.74-1.02.74-1.81.54-2.41.62-2.55.63-.06,0-.12,0-.18,0-.46,0-.58-.14-.65-.22-.01-.02-.03-.03-.05-.05-.01-.02-.44-.55-.62-2.92l-.55-8.02s0-.04,0-.06l-.42-4.38,1.23-.12,4.75-.51.49-.04c.94-.07,1.7-.79,1.83-1.72.1-.74.13-1.27.1-1.69-.02-.31-.08-.69-.16-1.17-.17-.96-1-1.65-1.97-1.65-.03,0-.07,0-.1,0-.85.04-1.48.08-1.9.11-.93.07-1.9.18-2.9.32-.68.09-1.21.16-1.63.21l-.1-1.71s0-.08-.01-.12l-.34-2.88c-.12-1.01-.98-1.76-1.98-1.76h0Z"/>
  </g>
  <g>
    <path class="cls-2" d="M191.6,66.44c-2.13,0-4.18-.33-6.09-.99-.08-.03-.16-.07-.23-.12-.47-.32-.75-.85-.84-1.59-.02-.21-.06-.46-.12-.82-.73-3.68-.85-4.58-.88-4.93-.04-.57.1-1.01.44-1.31.29-.26.69-.39,1.4-.44.02,0,.05,0,.07,0,.38,0,.73.22.9.56,1.08,2.24,1.63,3.09,1.89,3.42.78.98,1.68,1.72,2.67,2.21.83.4,1.71.61,2.62.61.16,0,.32,0,.49-.02.92-.07,1.84-.56,2.74-1.46.55-.58.8-1.22.75-1.93-.08-1.08-.55-2.03-1.44-2.91-.92-.89-2.71-1.73-5.32-2.48-2.99-.86-4.99-1.86-6.14-3.07-1.17-1.23-1.83-2.71-1.96-4.4-.12-1.59.22-3.05,1.01-4.33.78-1.27,1.91-2.28,3.38-3,1.41-.69,2.75-1.09,4.01-1.19.68-.05,1.35-.08,1.97-.08.76,0,1.49.04,2.17.12,1.28.15,2.42.45,3.39.89.28.13.49.38.56.68.25,1.06.5,2.58.77,4.64l.13.96c.08.54-.3,1.04-.83,1.13-.3.05-.55.08-.76.09,0,0-.48.04-.5.04-.39,0-.75-.23-.91-.58-.67-1.48-1.58-2.58-2.77-3.37-1.04-.69-2.03-1.04-2.95-1.04-.09,0-.19,0-.28.01-.97.07-1.7.4-2.23,1-.52.59-.74,1.33-.67,2.26.05.67.32,1.23.82,1.73.31.31,1.26.96,4.12,1.85,2.45.77,4.22,1.51,5.4,2.27,1.24.79,2.2,1.82,2.86,3.04.64,1.2,1.01,2.39,1.1,3.54.12,1.62-.3,3.18-1.27,4.66-.94,1.45-2.21,2.53-3.75,3.21-1.47.65-2.83,1.02-4.05,1.12-.55.04-1.1.06-1.64.06Z"/>
    <path class="cls-1" d="M192.92,39.16c.73,0,1.41.04,2.06.11,1.18.14,2.21.4,3.09.81.24,1.02.49,2.53.75,4.53l.14.97c-.27.04-.49.07-.68.08l-.43.03c-.75-1.64-1.79-2.9-3.13-3.79-1.21-.8-2.38-1.2-3.5-1.2-.12,0-.24,0-.36.01-1.23.09-2.2.54-2.91,1.34-.71.8-1.01,1.8-.92,2.99.07.91.44,1.7,1.11,2.36.67.66,2.18,1.36,4.52,2.1,2.34.74,4.06,1.46,5.16,2.16,1.1.7,1.94,1.59,2.52,2.67.58,1.08.91,2.13.98,3.14.11,1.4-.26,2.74-1.1,4.03-.84,1.29-1.95,2.24-3.32,2.84-1.37.6-2.61.95-3.72,1.03-.53.04-1.05.06-1.56.06-2.03,0-3.95-.31-5.76-.94-.22-.15-.35-.44-.41-.89-.01-.18-.06-.47-.13-.88-.54-2.71-.83-4.32-.86-4.83-.02-.24.02-.41.12-.5.1-.09.36-.15.79-.18.91,1.87,1.58,3.07,2.01,3.61.87,1.1,1.87,1.92,3.01,2.48.97.47,1.99.71,3.06.71.19,0,.38,0,.57-.02,1.17-.09,2.3-.68,3.37-1.76.77-.81,1.11-1.72,1.03-2.71-.1-1.32-.68-2.5-1.73-3.54-1.05-1.02-2.96-1.93-5.75-2.73-2.78-.8-4.68-1.73-5.69-2.79-1.01-1.06-1.57-2.33-1.69-3.79-.1-1.38.18-2.62.86-3.74.68-1.11,1.67-1.99,2.96-2.63,1.3-.64,2.51-1,3.64-1.09.66-.05,1.29-.08,1.9-.08M192.92,37.16c-.65,0-1.34.03-2.05.08-1.38.1-2.85.54-4.37,1.29-1.64.81-2.91,1.94-3.79,3.38-.9,1.47-1.29,3.13-1.15,4.93.15,1.93.9,3.62,2.23,5.02,1.27,1.34,3.42,2.43,6.59,3.34,3.05.88,4.35,1.7,4.9,2.24.69.69,1.07,1.43,1.13,2.26.02.3-.02.67-.48,1.17-.72.71-1.42,1.1-2.09,1.15-.14.01-.28.02-.41.02-.77,0-1.48-.17-2.18-.51-.87-.43-1.63-1.06-2.32-1.92-.16-.2-.64-.89-1.78-3.24-.34-.69-1.04-1.13-1.8-1.13-.05,0-.1,0-.15,0-.66.05-1.42.17-2,.71-.39.36-.84,1.02-.76,2.12.03.41.16,1.36.9,5.07.08.44.1.6.1.64,0,.03,0,.06,0,.09.16,1.3.78,1.97,1.28,2.3.14.1.3.18.47.23,2.01.7,4.17,1.05,6.42,1.05.56,0,1.14-.02,1.71-.07,1.33-.1,2.81-.51,4.38-1.2,1.73-.76,3.13-1.96,4.19-3.58,1.09-1.66,1.57-3.44,1.42-5.28-.1-1.29-.51-2.61-1.22-3.93-.74-1.38-1.82-2.52-3.2-3.41-1.26-.81-3.11-1.59-5.64-2.38-2.9-.91-3.6-1.5-3.71-1.61-.33-.32-.49-.66-.52-1.09-.06-.85.19-1.26.43-1.52.22-.25.63-.6,1.56-.67.07,0,.14,0,.2,0,.72,0,1.53.29,2.4.87,1.03.68,1.82,1.65,2.41,2.95.33.72,1.04,1.17,1.82,1.17.05,0,.1,0,.16,0l.43-.03c.22-.02.49-.05.83-.1,1.08-.17,1.83-1.17,1.67-2.25l-.14-.97c-.27-2.08-.52-3.63-.78-4.72-.14-.6-.55-1.1-1.11-1.35-1.07-.49-2.31-.82-3.69-.97-.72-.08-1.49-.12-2.29-.12h0Z"/>
  </g>
  <g>
    <path class="cls-2" d="M232.38,63.25c-2.23,0-4.2-.44-5.86-1.3-2.01-1.05-3.55-2.52-4.56-4.37-.99-1.8-1.56-3.58-1.69-5.3-.1-1.34.05-2.66.45-3.94.4-1.27.99-2.39,1.74-3.34.72-.91,1.72-1.87,2.96-2.87.46-.36,1.5-1,3.17-1.99.65-.38,1.33-.7,2.06-.97-1.59-1.78-2.64-3.14-3.21-4.13-.7-1.24-1.1-2.47-1.2-3.65-.16-2.08.57-3.98,2.17-5.64,1.57-1.63,3.89-2.58,6.91-2.81.39-.03.77-.04,1.13-.04,2.3,0,4.21.59,5.68,1.75,1.73,1.37,2.69,3.18,2.86,5.39.16,2.05-.26,3.83-1.23,5.31-.79,1.2-2.01,2.29-3.7,3.32.74.79,1.7,1.75,2.89,2.89.6.57,1.05,1.02,1.36,1.36l4.94,5.19c1.19-1.63,2.07-3.12,2.64-4.44.8-1.86.93-2.81.89-3.28-.03-.34-.15-.6-.38-.83-.15-.14-.55-.41-1.52-.59-.31-.06-.57-.25-.71-.54-.16-.32-.24-.58-.26-.82,0-.07,0-.15,0-.22l.04-.28c.06-.43.39-.77.82-.84l3.52-.6c.71-.16,1.76-.31,3.1-.45,1.29-.14,3.11-.39,5.42-.75.05,0,.1-.01.15-.01.45,0,.86.31.97.76l.09.36c.01.06.02.11.03.17.02.25-.02.53-.12.88-.08.27-.26.49-.5.61-1.31.67-2.43,1.42-3.32,2.22-.9.81-2.29,2.47-4.13,4.94-1.66,2.24-3.12,4.33-4.35,6.25,3.05,3.05,4.49,4.14,5.15,4.51.82.46,1.65.68,2.53.68.13,0,.26,0,.39-.02,1.12-.08,2.03-.47,2.79-1.19.84-.76,1.43-1.09,1.97-1.13.02,0,.09,0,.11,0,.2,0,.43.04.74.11.5.12.83.61.75,1.13-.46,2.87-.91,3.61-1.33,4-1.61,1.54-3.5,2.41-5.6,2.56-.3.02-.6.03-.89.03-.94,0-1.85-.12-2.71-.35-1.1-.3-2.27-.81-3.48-1.53-.71-.43-1.83-1.29-3.45-2.62-.48-.4-.88-.72-1.18-.97-1.25,1.41-2.21,2.39-2.9,2.98-1.41,1.21-3,2.19-4.71,2.94-1.73.76-3.75,1.23-6.01,1.4-.49.04-.96.06-1.42.06ZM233.23,41.75c-2.01,1.02-3.53,2.32-4.51,3.86-1.08,1.69-1.54,3.37-1.41,5.12.02.3.15.88.61,1.95.36.83.97,1.64,1.81,2.42.84.77,1.9,1.35,3.15,1.73.96.29,2.04.44,3.2.44.37,0,.76-.01,1.15-.04,1.85-.14,3.53-.63,4.97-1.46,1.16-.67,2.13-1.44,2.87-2.29l-7.27-7.33c-.85-.89-2.38-2.37-4.56-4.4ZM235.64,26.32c-.11,0-.22,0-.34.01-1,.08-1.75.41-2.3,1.02-.54.59-.77,1.25-.71,2,.07.87.51,1.85,1.3,2.91,1.11,1.44,2.37,2.74,3.75,3.88.65-.46,1.16-1.08,1.54-1.88.49-1.04.7-2.14.61-3.25-.13-1.67-.59-2.91-1.39-3.68-.7-.68-1.5-1.01-2.46-1.01Z"/>
    <path class="cls-1" d="M236.46,23.9c2.08,0,3.77.51,5.06,1.54,1.51,1.19,2.34,2.76,2.48,4.69.14,1.83-.22,3.39-1.07,4.68-.85,1.29-2.33,2.5-4.44,3.62.8.94,2.05,2.23,3.77,3.87.58.55,1.02.98,1.31,1.31l5.77,6.07c1.6-2.08,2.76-3.94,3.47-5.59s1.04-2.9.97-3.76c-.04-.59-.27-1.08-.69-1.47-.41-.4-1.09-.68-2.04-.85-.1-.2-.15-.35-.16-.45l.04-.28,3.52-.61c.71-.16,1.72-.3,3.04-.45,1.31-.14,3.14-.39,5.47-.75l.09.36c0,.12-.02.3-.08.53-1.39.72-2.57,1.5-3.53,2.36-.96.86-2.38,2.55-4.27,5.09-1.89,2.54-3.49,4.87-4.82,6.98,2.85,2.88,4.83,4.62,5.94,5.24.97.54,1.97.81,3.02.81.16,0,.31,0,.47-.02,1.34-.1,2.47-.59,3.4-1.45.62-.56,1.07-.85,1.36-.87.01,0,.02,0,.04,0,.11,0,.27.03.5.08-.31,1.94-.64,3.08-1.01,3.41-1.46,1.4-3.13,2.17-5.01,2.31-.28.02-.55.03-.82.03-.85,0-1.67-.11-2.45-.32-1.02-.28-2.1-.75-3.23-1.42-.65-.4-1.76-1.24-3.33-2.53-.99-.82-1.64-1.34-1.95-1.56-1.52,1.75-2.66,2.94-3.42,3.59-1.34,1.14-2.83,2.07-4.46,2.79-1.63.72-3.53,1.16-5.69,1.32-.46.03-.91.05-1.35.05-2.08,0-3.88-.4-5.4-1.19-1.84-.96-3.22-2.28-4.15-3.96-.93-1.68-1.45-3.31-1.57-4.89-.09-1.21.04-2.4.41-3.56.37-1.16.89-2.17,1.57-3.02.68-.86,1.61-1.76,2.8-2.7.41-.32,1.43-.95,3.05-1.91,1.01-.59,2.12-1.04,3.34-1.35-2.12-2.28-3.49-3.99-4.13-5.1-.63-1.12-.99-2.19-1.07-3.23-.14-1.79.49-3.41,1.89-4.87,1.4-1.46,3.49-2.29,6.26-2.5.36-.03.71-.04,1.06-.04M237.26,37.36c1.11-.57,1.96-1.46,2.53-2.67.57-1.2.81-2.46.71-3.76-.15-1.93-.71-3.37-1.69-4.32-.88-.86-1.94-1.29-3.16-1.29-.14,0-.28,0-.42.02-1.25.1-2.24.54-2.97,1.34-.72.8-1.05,1.72-.97,2.75.08,1.08.58,2.22,1.5,3.43,1.31,1.7,2.8,3.19,4.47,4.49M236.07,58.27c.4,0,.81-.02,1.23-.05,2.02-.15,3.81-.68,5.39-1.59,1.58-.9,2.8-1.97,3.68-3.2l-.27-.32-.1-.11-7.49-7.56c-.92-.97-2.62-2.6-5.09-4.9-2.5,1.15-4.34,2.65-5.54,4.52-1.19,1.86-1.71,3.78-1.56,5.74.04.55.27,1.3.68,2.27.42.97,1.1,1.89,2.06,2.76.96.88,2.13,1.52,3.53,1.95,1.06.32,2.23.48,3.49.48M236.46,21.9h0c-.39,0-.8.02-1.21.05-3.27.25-5.81,1.3-7.55,3.11-1.8,1.88-2.63,4.03-2.45,6.41.1,1.33.55,2.7,1.32,4.07.48.84,1.28,1.92,2.42,3.26-.31.15-.61.31-.9.48-2.29,1.35-2.96,1.82-3.26,2.06-1.35,1.08-2.37,2.07-3.15,3.05-.83,1.05-1.47,2.28-1.91,3.66-.44,1.4-.61,2.85-.5,4.32.14,1.86.75,3.78,1.81,5.7,1.11,2.02,2.79,3.63,4.98,4.77,1.8.94,3.93,1.41,6.32,1.41.48,0,.99-.02,1.5-.06,2.38-.18,4.51-.68,6.34-1.48,1.8-.79,3.47-1.83,4.95-3.1.6-.52,1.38-1.3,2.36-2.37.14.11.28.23.44.36,1.69,1.38,2.81,2.24,3.56,2.69,1.3.77,2.55,1.32,3.75,1.65.95.26,1.95.39,2.97.39.32,0,.64-.01.97-.04,2.33-.18,4.42-1.13,6.22-2.84.77-.71,1.21-1.96,1.62-4.56.16-1.02-.49-2-1.49-2.25-.39-.1-.7-.14-.98-.14-.05,0-.14,0-.19,0-.78.06-1.54.47-2.55,1.38-.62.58-1.33.88-2.21.95-.11,0-.21.01-.32.01-.7,0-1.37-.18-2.05-.56-.47-.26-1.64-1.1-4.36-3.77,1.12-1.71,2.42-3.56,3.87-5.51,2.24-3.01,3.41-4.27,3.99-4.79.83-.74,1.87-1.44,3.11-2.08.49-.25.86-.7,1.01-1.23.13-.47.18-.86.16-1.23,0-.11-.03-.22-.05-.33l-.09-.36c-.22-.9-1.03-1.52-1.94-1.52-.1,0-.2,0-.31.02-2.29.36-4.1.6-5.37.74-1.37.15-2.42.3-3.21.47l-3.48.6c-.85.15-1.51.82-1.64,1.68l-.04.28c-.02.15-.03.3-.02.45.03.37.14.75.36,1.19.28.56.81.96,1.43,1.07.79.14,1.01.33,1.01.33.04.04.07.07.07.18.01.19,0,.93-.81,2.82-.42.99-1.04,2.08-1.84,3.26l-4.11-4.32c-.3-.33-.76-.79-1.39-1.38-.77-.73-1.44-1.39-2.02-1.98,1.3-.92,2.28-1.89,2.98-2.95,1.1-1.66,1.57-3.66,1.4-5.94-.19-2.5-1.28-4.55-3.24-6.1-1.65-1.31-3.77-1.97-6.3-1.97h0ZM237.33,34.82c-1.08-.96-2.07-2.02-2.96-3.18-.67-.88-1.04-1.68-1.09-2.37-.04-.48.1-.86.46-1.25.24-.26.67-.62,1.64-.69.09,0,.18-.01.26-.01.7,0,1.26.23,1.76.72.62.6.99,1.62,1.09,3.04.07.96-.1,1.86-.52,2.75-.18.38-.39.71-.64.99h0ZM236.07,56.27c-1.06,0-2.04-.13-2.91-.4-1.12-.34-2.02-.83-2.76-1.51-.74-.68-1.27-1.37-1.57-2.07-.46-1.06-.52-1.52-.53-1.63-.12-1.53.29-3.01,1.25-4.51.79-1.23,1.96-2.29,3.51-3.17,1.89,1.77,3.22,3.06,3.98,3.86l6.6,6.66c-.56.51-1.21.98-1.96,1.41-1.31.75-2.84,1.2-4.54,1.33-.37.03-.73.04-1.07.04h0Z"/>
  </g>
  <g>
    <path class="cls-2" d="M283.02,59.01c-.43,0-.81-.27-.95-.68l-.06-.19c-.09-.2-.14-.41-.15-.63,0-.04,0-.09,0-.13l.03-.46c.02-.35.23-.67.54-.83.82-.43,1.8-.74,2.89-.94,1.1-.21,1.96-.52,2.52-.91.21-.77.43-2.77.04-7.91l-.37-4.81-.16-2.92-.22-2.08-.24-3.98-.84-9.86c-.09-1.23-.34-1.5-.34-1.5-.09-.08-.67-.51-3.33-.86-1.35-.19-1.77-.38-2.02-.56-.43-.3-.7-.79-.82-1.49-.09-.5.21-.99.7-1.13.55-.16.92-.25,1.18-.27l2.19-.17,1.11-.11c.35-.03.68-.04,1.03-.04.52,0,1.08.03,1.67.08,1.85-.02,3.77-.11,5.73-.26.55-.04,1.36-.13,2.4-.27,2.83-.38,4.9-.62,6.15-.71.95-.07,1.9-.11,2.81-.11,1.54,0,3.06.1,4.51.31,2.33.33,4.8,1.09,7.32,2.27,1.63.77,3.33,2.05,5.08,3.8,1.74,1.75,3.13,3.73,4.13,5.89,1,2.16,1.61,4.66,1.82,7.42.19,2.48-.08,5.01-.81,7.51-.73,2.51-1.86,4.76-3.37,6.69-1.5,1.91-3.08,3.41-4.71,4.45-1.64,1.05-4.07,2-7.45,2.92-1.41.37-3.85.68-7.47.95-2.01.15-3.73.23-5.11.23-.23,0-.46,0-.68,0-.27-.02-.5-.02-.74-.02-.33,0-.67.01-1.02.04-.06,0-.11.02-.17.03-.05.01-.1.02-.15.03l-12.57,1.2s-.06,0-.1,0ZM298.8,53.62c1.13.28,2.27.42,3.39.42.34,0,.69-.01,1.03-.04,1.97-.15,3.9-.61,5.73-1.35,1.83-.74,3.45-1.73,4.8-2.93s2.45-2.54,3.27-3.99c.83-1.47,1.4-2.78,1.7-3.89.41-1.64.52-3.82.32-6.46-.19-2.49-.93-5.02-2.2-7.52-.85-1.68-2.28-3.28-4.24-4.75-1.97-1.48-4.28-2.52-6.86-3.08-1.88-.41-3.88-.62-5.95-.62-.82,0-1.67.03-2.52.1-1.87.14-3.25.43-4.13.86,0,.01-.02.02-.03.04-.05.35-.06.67-.04.96.02.25.05.54.1.88.25,2.46.42,4.32.53,5.71l.49,6.91c1,13.09,1.55,16,1.79,16.57.35.84,1.3,1.58,2.81,2.19Z"/>
    <path class="cls-1" d="M304.49,16.3c1.5,0,2.96.1,4.37.3,2.25.32,4.59,1.05,7.04,2.19,1.52.72,3.12,1.92,4.79,3.6,1.67,1.68,2.98,3.55,3.93,5.6.95,2.06,1.53,4.42,1.73,7.07.18,2.37-.08,4.76-.77,7.16-.7,2.4-1.76,4.52-3.19,6.35-1.43,1.83-2.92,3.24-4.46,4.23-1.54.98-3.93,1.92-7.17,2.79-1.34.35-3.77.65-7.28.92-1.99.15-3.67.23-5.03.23-.23,0-.45,0-.66,0-.25-.02-.5-.02-.76-.02-.35,0-.72.01-1.1.04-.1,0-.22.03-.34.06l-12.57,1.2-.08-.24c-.05-.1-.08-.21-.09-.33l.03-.46c.74-.38,1.6-.66,2.6-.84,1.45-.27,2.51-.7,3.19-1.28.47-1.16.53-4.02.18-8.59l-.37-4.81-.16-2.9-.22-2.13-.24-3.93-.85-9.89c-.09-1.12-.31-1.83-.66-2.16-.51-.47-1.8-.84-3.87-1.11-.86-.12-1.38-.25-1.58-.38-.2-.14-.33-.42-.41-.84.47-.14.79-.21.98-.23l2.19-.17,1.14-.12c.29-.02.6-.03.92-.03.51,0,1.05.03,1.63.08,1.9-.02,3.85-.11,5.84-.26.58-.04,1.4-.14,2.46-.28,2.83-.38,4.85-.61,6.09-.71.93-.07,1.84-.11,2.74-.11M302.19,55.04c.37,0,.74-.01,1.11-.04,2.08-.16,4.09-.63,6.03-1.42,1.95-.79,3.64-1.83,5.09-3.11,1.44-1.28,2.6-2.7,3.48-4.24.87-1.55,1.47-2.92,1.79-4.13.44-1.77.56-4.03.35-6.79-.2-2.64-.97-5.27-2.31-7.9-.93-1.83-2.44-3.53-4.53-5.1-2.09-1.57-4.51-2.66-7.24-3.26-1.96-.43-4.01-.64-6.16-.64-.85,0-1.72.03-2.6.1-2.14.16-3.7.52-4.7,1.06-.11.13-.23.28-.34.45-.09.52-.11.99-.08,1.41.02.26.05.58.1.94.24,2.35.42,4.23.52,5.65l.49,6.91c.77,10.14,1.39,15.77,1.86,16.88.47,1.12,1.61,2.04,3.42,2.75,1.23.31,2.47.47,3.7.47M304.49,14.3c-.94,0-1.92.04-2.89.11-1.29.1-3.32.33-6.2.72-1.03.14-1.82.23-2.35.27-1.91.15-3.79.23-5.61.25-.6-.05-1.17-.08-1.71-.08-.37,0-.73.01-1.07.04-.02,0-.04,0-.05,0l-1.11.11-2.16.16c-.34.03-.76.12-1.39.3-.97.29-1.58,1.26-1.4,2.26.17.96.58,1.68,1.23,2.13.51.35,1.17.55,2.46.73,1.65.22,2.39.45,2.68.57.04.15.09.42.13.87l.85,9.91.23,3.88s0,.06,0,.09l.22,2.08.16,2.85.37,4.85c.34,4.46.21,6.4.08,7.2-.36.18-.93.39-1.83.56-1.17.21-2.24.56-3.15,1.03-.63.32-1.04.95-1.08,1.66l-.03.46c0,.09,0,.18,0,.26.02.32.1.63.22.91l.05.15c.28.82,1.04,1.36,1.9,1.36.06,0,.13,0,.19,0l12.57-1.2c.1,0,.19-.03.29-.05.34-.03.66-.04.96-.04.21,0,.42,0,.63.02.03,0,.06,0,.09,0,.22,0,.46,0,.7,0,1.41,0,3.15-.08,5.18-.23,3.68-.28,6.18-.6,7.63-.98,3.5-.95,6.02-1.94,7.75-3.05,1.72-1.1,3.39-2.68,4.95-4.68,1.58-2.02,2.77-4.39,3.54-7.02.76-2.62,1.04-5.26.85-7.87-.22-2.88-.86-5.49-1.91-7.76-1.05-2.26-2.51-4.34-4.33-6.18-1.82-1.83-3.62-3.18-5.35-3.99-2.63-1.22-5.18-2.01-7.61-2.36-1.49-.21-3.06-.32-4.65-.32h0ZM294.07,21.06c.64-.22,1.65-.44,3.28-.56.83-.06,1.65-.09,2.45-.09,2,0,3.92.2,5.73.6,2.44.53,4.62,1.51,6.47,2.9,1.84,1.38,3.17,2.86,3.95,4.41,1.21,2.38,1.92,4.79,2.1,7.15.19,2.53.09,4.6-.3,6.15-.27,1.01-.81,2.24-1.6,3.63-.76,1.35-1.8,2.6-3.07,3.73-1.27,1.13-2.78,2.05-4.51,2.75-1.74.71-3.57,1.14-5.43,1.28-.32.02-.64.04-.96.04-1.02,0-2.06-.13-3.08-.38-1.18-.49-1.96-1.06-2.2-1.62-.18-.48-.7-3.05-1.71-16.26l-.49-6.9c-.11-1.43-.28-3.29-.53-5.71,0-.02,0-.04,0-.06-.04-.32-.07-.6-.09-.83,0-.07,0-.14,0-.22h0Z"/>
  </g>
  <g>
    <path class="cls-2" d="M345.49,54.58c-2.3,0-4.55-.53-6.7-1.57-1.9-.93-3.6-2.41-5.06-4.39-1.47-2-2.31-4.37-2.52-7.04-.11-1.49.08-3.12.58-4.85.5-1.74,1.35-3.35,2.53-4.79,1.17-1.43,2.47-2.54,3.87-3.31,1.92-1.06,4.33-1.71,7.16-1.92.44-.03.88-.05,1.31-.05,3.56,0,6.7,1.16,9.35,3.45,2.97,2.57,4.63,5.85,4.93,9.76.27,3.51-.96,6.79-3.65,9.75-2.68,2.93-6.25,4.59-10.63,4.92-.39.03-.79.04-1.18.04ZM346.02,29.88c-.21,0-.43,0-.65.03-1.21.09-2.45.48-3.69,1.14-1.16.63-2.13,1.78-2.87,3.42-.77,1.7-1.04,4.13-.8,7.23.26,3.42,1.23,5.96,2.88,7.54,1.48,1.42,3.16,2.11,5.14,2.11.22,0,.44,0,.66-.03,1.38-.11,2.71-.58,3.95-1.42,1.21-.82,2.15-2.1,2.8-3.8.67-1.76.92-3.79.75-6.04-.11-1.47-.57-3.19-1.35-5.13-.74-1.83-1.77-3.18-3.06-4-1.12-.72-2.35-1.06-3.75-1.06Z"/>
    <path class="cls-1" d="M346.67,27.66c3.32,0,6.22,1.07,8.7,3.21,2.78,2.4,4.31,5.42,4.59,9.08.25,3.24-.88,6.24-3.39,8.99-2.51,2.75-5.83,4.28-9.97,4.6-.37.03-.74.04-1.1.04-2.16,0-4.25-.49-6.27-1.47-1.76-.86-3.32-2.22-4.69-4.08-1.36-1.85-2.14-4.03-2.33-6.52-.1-1.38.08-2.88.54-4.49.47-1.62,1.25-3.09,2.35-4.43,1.1-1.34,2.29-2.36,3.58-3.07,1.81-.99,4.06-1.59,6.75-1.8.42-.03.83-.05,1.24-.05M346.03,52.36c.24,0,.49,0,.74-.03,1.56-.12,3.04-.65,4.43-1.59,1.39-.94,2.45-2.36,3.17-4.27.72-1.9,1-4.06.81-6.47-.12-1.58-.6-3.39-1.42-5.43-.83-2.04-1.98-3.53-3.45-4.46-1.28-.81-2.71-1.22-4.29-1.22-.24,0-.48,0-.73.03-1.36.1-2.72.52-4.09,1.26-1.36.74-2.47,2.03-3.31,3.89-.84,1.86-1.14,4.43-.89,7.72.28,3.69,1.34,6.42,3.19,8.19,1.66,1.59,3.61,2.39,5.83,2.39M346.67,25.66h0c-.45,0-.92.02-1.39.05-2.97.23-5.51.91-7.56,2.04-1.51.83-2.91,2.03-4.16,3.56-1.27,1.54-2.18,3.28-2.72,5.15-.53,1.84-.74,3.59-.62,5.2.22,2.86,1.13,5.4,2.71,7.56,1.55,2.11,3.37,3.69,5.42,4.69,2.29,1.11,4.7,1.67,7.15,1.67.41,0,.83-.02,1.25-.05,4.64-.35,8.44-2.12,11.29-5.25,2.89-3.16,4.2-6.69,3.91-10.5-.32-4.18-2.09-7.69-5.27-10.44-2.84-2.45-6.2-3.69-10.01-3.69h0ZM346.03,50.36c-1.71,0-3.16-.6-4.45-1.83-1.47-1.41-2.33-3.73-2.58-6.89-.22-2.93.02-5.2.72-6.74.65-1.44,1.47-2.44,2.44-2.96,1.11-.6,2.22-.94,3.29-1.03.2-.01.39-.02.58-.02,1.2,0,2.25.3,3.21.91,1.11.71,2.01,1.9,2.67,3.53.75,1.84,1.18,3.46,1.28,4.83.16,2.1-.07,3.99-.69,5.61-.58,1.52-1.37,2.61-2.42,3.32-1.1.75-2.24,1.16-3.46,1.25-.2.01-.39.02-.58.02h0Z"/>
  </g>
  <g>
    <path class="cls-2" d="M377.73,52.12c-2.3,0-4.56-.53-6.71-1.57-1.91-.94-3.61-2.41-5.06-4.39-1.47-2-2.32-4.37-2.52-7.04-.12-1.49.08-3.12.58-4.85.5-1.74,1.36-3.35,2.53-4.79,1.17-1.43,2.48-2.54,3.87-3.31,1.92-1.06,4.33-1.71,7.16-1.92.44-.03.88-.05,1.31-.05,3.55,0,6.7,1.16,9.35,3.45,2.97,2.57,4.63,5.85,4.93,9.76.27,3.51-.96,6.79-3.65,9.75-2.68,2.93-6.25,4.59-10.63,4.92-.39.03-.79.04-1.18.04ZM378.26,27.43c-.22,0-.43,0-.65.03-1.21.09-2.45.48-3.69,1.14-1.16.63-2.12,1.78-2.87,3.43-.77,1.7-1.04,4.13-.8,7.23.26,3.42,1.23,5.96,2.88,7.54,1.48,1.42,3.16,2.11,5.13,2.11h0c.22,0,.44,0,.66-.03,1.4-.11,2.7-.57,3.95-1.42,1.21-.82,2.15-2.1,2.8-3.79.67-1.75.92-3.79.75-6.04-.11-1.47-.57-3.19-1.35-5.13-.75-1.83-1.77-3.18-3.06-4-1.12-.72-2.35-1.06-3.75-1.06Z"/>
    <path class="cls-1" d="M378.91,25.2c3.32,0,6.22,1.07,8.7,3.21,2.78,2.4,4.31,5.42,4.59,9.08.25,3.24-.88,6.24-3.39,8.99-2.51,2.75-5.83,4.28-9.97,4.6-.37.03-.74.04-1.1.04-2.16,0-4.25-.49-6.27-1.47-1.76-.86-3.32-2.22-4.69-4.08-1.36-1.85-2.14-4.03-2.33-6.52-.11-1.38.07-2.88.54-4.49.47-1.62,1.25-3.09,2.35-4.43,1.1-1.34,2.29-2.36,3.58-3.07,1.81-.99,4.06-1.59,6.75-1.8.42-.03.83-.05,1.24-.05M378.26,49.9c.24,0,.49,0,.74-.03,1.57-.12,3.04-.65,4.43-1.59,1.39-.94,2.45-2.36,3.17-4.27.73-1.9,1-4.06.81-6.47-.12-1.58-.6-3.39-1.42-5.43-.83-2.04-1.98-3.53-3.45-4.46-1.28-.81-2.71-1.22-4.29-1.22-.24,0-.48,0-.73.03-1.36.1-2.72.52-4.09,1.26-1.36.74-2.47,2.03-3.31,3.89-.84,1.86-1.14,4.43-.89,7.72.28,3.69,1.34,6.42,3.19,8.19,1.66,1.59,3.6,2.39,5.83,2.39M378.91,23.2h0c-.45,0-.92.02-1.39.05-2.97.23-5.51.91-7.56,2.04-1.51.83-2.91,2.03-4.16,3.56-1.27,1.55-2.18,3.28-2.72,5.15-.53,1.84-.74,3.59-.61,5.2.22,2.86,1.13,5.4,2.71,7.55,1.55,2.11,3.37,3.69,5.42,4.69,2.29,1.11,4.7,1.67,7.15,1.67.41,0,.83-.02,1.25-.05,4.64-.35,8.44-2.12,11.29-5.25,2.89-3.16,4.2-6.69,3.91-10.5-.32-4.18-2.09-7.69-5.27-10.44-2.84-2.45-6.2-3.69-10.01-3.69h0ZM378.26,47.9c-1.7,0-3.16-.6-4.44-1.83-1.47-1.41-2.34-3.73-2.58-6.89-.22-2.93.02-5.2.72-6.74.65-1.44,1.47-2.44,2.44-2.96,1.11-.6,2.22-.94,3.29-1.03.19-.01.39-.02.58-.02,1.2,0,2.25.3,3.21.91,1.11.71,2.01,1.9,2.67,3.53.75,1.84,1.18,3.46,1.28,4.83.16,2.11-.07,3.99-.69,5.61-.58,1.52-1.37,2.61-2.42,3.32-1.1.75-2.24,1.16-3.46,1.25-.2.02-.39.02-.59.02h0Z"/>
  </g>
  <g>
    <path class="cls-2" d="M396.36,49.98c-.47,0-.87-.32-.97-.78l-.05-.21s-.02-.09-.02-.14c-.03-.37.08-.77.33-1.21.13-.23.36-.4.62-.47,2.4-.62,3.29-.93,3.61-1.07,0-.04,0-.1,0-.17l-.18-1.99-.24-3.58-.75-9.04-.23-3.39-.18-2.39-.13-2.99c-.43-5.65-.65-7.55-.76-8.14-.15-.84-.31-1.05-.32-1.05-.09-.07-.73-.49-3.7-.93-.46-.07-.81-.45-.85-.91v-.15c-.03-.18-.02-.43,0-.77.03-.44.35-.81.79-.9.25-.06.5-.12.74-.19.27-.09.54-.15.8-.2,2.26-.83,3.9-1.59,4.87-2.27.15-.1.32-.16.49-.17,0,0,1.56-.12,1.59-.12.49,0,.91.36.99.85.09.59.25,2.37.48,5.46l.26,3.88.41,4.97.27,4.84c.47-.56.85-.99,1.16-1.28,1.08-1,2.26-1.83,3.52-2.46,1.29-.65,2.68-1.03,4.15-1.14.25-.02.5-.03.74-.03,2.54,0,4.73,1.03,6.54,3.05,1.17,1.33,1.85,3.26,2.04,5.74l.14,3.14.16,1.68.11,3.08c.14,3.2.19,4.13.21,4.41.03.35.07.79.13,1.32l1.03.15c1.22.16,2.16.31,2.85.48.44.1.75.48.77.93l.04.95c.02.55-.4,1.02-.95,1.04l-6.58.32c-.19.01-.86.08-2.94.35-1.04.12-1.63.19-1.8.2,0,0-.73.05-.75.05-.33,0-.65-.17-.83-.45-.22-.33-.33-.63-.35-.93l-.02-.27c-.02-.22.04-.45.17-.63.41-.61,1.11-1.02,2.15-1.27l1.45-.45c0-.28-.02-1.78-.34-7.61l-.11-2.26c-.09-2.26-.41-4.12-.94-5.55-.29-.83-.84-1.44-1.69-1.88-.75-.39-1.61-.6-2.54-.6-.17,0-.35,0-.53.02-.96.07-1.86.35-2.68.81-.55.33-1.26.94-2.08,1.8-.81.85-1.37,1.55-1.65,2.1-.04.09-.19.46-.11,1.5l.19,2.1.11,2.26c.01.15.14,1.41.38,3.73l.12,1.99.21,1.96,3.75.59c.32.06.71.17,1.2.33.29.1.53.32.63.62l.12.34c.03.09.05.18.06.27.02.26-.04.54-.18.92-.13.36-.45.61-.83.65-.61.07-1.08.11-1.39.14l-2.42.15-5.28.46-3.95.42s-.12,0-.13,0h-.21c-.18,0-.68,0-.69,0Z"/>
    <path class="cls-1" d="M401.81,7.74c.09.57.24,2.36.47,5.38l.26,3.87.41,4.99.35,6.16c.03.36.08.77.15,1.21,1.18-1.58,2.06-2.64,2.62-3.17,1.01-.93,2.1-1.7,3.27-2.29,1.18-.59,2.44-.94,3.78-1.04.22-.02.45-.03.66-.03,2.25,0,4.18.9,5.79,2.71,1.02,1.16,1.62,2.88,1.79,5.15l.14,3.11.16,1.73.11,3.02c.11,2.5.18,3.98.21,4.45.04.53.11,1.23.22,2.12l1.79.26c1.19.15,2.11.31,2.77.46l.04.94-6.58.32c-.37.03-1.38.14-3.02.35-1,.12-1.59.18-1.75.19l-.68.05c-.12-.18-.18-.32-.19-.44l-.02-.27c.26-.39.78-.67,1.55-.85l1.82-.57c.23-.22.36-.44.38-.67.04-.53-.06-3.15-.32-7.86l-.11-2.25c-.1-2.38-.43-4.32-1.01-5.85-.37-1.05-1.09-1.86-2.16-2.42-.9-.47-1.91-.71-3-.71-.2,0-.4,0-.61.02-1.11.09-2.15.4-3.1.94-.65.4-1.42,1.06-2.3,1.98-.88.92-1.49,1.7-1.81,2.34-.22.42-.29,1.1-.22,2.03l.19,2.12.11,2.22c.01.18.14,1.44.38,3.78l.12,1.94.22,2.12c.04.3.09.52.14.66l4.43.7c.23.05.58.14,1.05.3l.12.34c0,.1-.03.27-.12.51-.59.07-1.05.11-1.35.13l-2.41.15-5.3.47-3.97.43c-.07,0-.14,0-.23,0-.18,0-.42,0-.7.01l-.05-.21c-.01-.16.05-.37.2-.63,2.37-.61,3.74-1.04,4.09-1.29.22-.16.3-.49.27-1l-.18-2-.24-3.56-.75-9.05-.23-3.38-.18-2.4-.13-2.96c-.35-4.62-.61-7.38-.77-8.27-.16-.89-.38-1.44-.67-1.65-.53-.43-1.92-.81-4.18-1.15v-.15c-.02-.14-.02-.35,0-.61.28-.06.56-.13.82-.22.26-.08.52-.14.76-.18,2.4-.88,4.12-1.68,5.18-2.41l1.51-.12M401.81,5.74c-.05,0-.1,0-.15,0l-1.51.12c-.35.03-.69.15-.99.35-.62.43-1.91,1.14-4.57,2.12-.27.05-.55.12-.83.21-.22.07-.43.12-.65.17-.87.19-1.51.92-1.57,1.8-.03.38-.03.67-.02.91v.16c.08.93.79,1.69,1.71,1.83,1.89.28,2.73.54,3.07.67.03.11.07.27.11.5.1.57.32,2.43.74,8.04l.13,2.92s0,.04,0,.06l.18,2.4.23,3.36.75,9.09.24,3.53.13,1.44c-.52.17-1.38.42-2.8.78-.52.13-.97.47-1.24.94-.36.62-.51,1.2-.46,1.78,0,.1.02.19.04.28l.05.21c.21.91,1.02,1.56,1.95,1.56.02,0,.04,0,.06,0,.26,0,.47-.01.64-.01h.18s.03,0,.05,0c.07,0,.14,0,.21-.01l3.97-.43,5.26-.46,2.36-.15c.35-.03.82-.07,1.45-.14.76-.08,1.4-.59,1.66-1.3.19-.53.26-.94.23-1.35-.01-.18-.05-.35-.11-.51l-.12-.34c-.21-.59-.67-1.04-1.27-1.24-.54-.17-.95-.29-1.27-.36-.03,0-.05-.01-.08-.01l-2.99-.47-.13-1.19-.11-1.9s0-.06,0-.08c-.26-2.56-.36-3.52-.38-3.71l-.11-2.18s0-.06,0-.09l-.19-2.12c-.05-.63,0-.91.03-.97.17-.32.56-.89,1.46-1.83.92-.96,1.52-1.42,1.87-1.64.69-.39,1.43-.61,2.24-.67.15-.01.31-.02.46-.02.78,0,1.46.16,2.07.48.62.32,1,.74,1.2,1.31.51,1.36.8,3.12.89,5.27l.11,2.27c.22,4.01.29,5.93.32,6.84l-.73.23c-1.24.3-2.14.86-2.67,1.66-.25.37-.37.82-.34,1.27l.02.27c.04.47.21.94.52,1.41.37.56,1,.89,1.66.89.05,0,.1,0,.15,0l.68-.05c.17-.01.52-.05,1.83-.2,2.06-.26,2.71-.33,2.91-.34l6.55-.32c1.1-.05,1.95-.99,1.9-2.08l-.04-.94c-.04-.9-.67-1.66-1.54-1.86-.72-.17-1.69-.33-2.97-.5l-.23-.03c-.02-.19-.03-.36-.05-.52-.02-.26-.07-1.19-.21-4.38l-.11-3s0-.08,0-.12l-.16-1.68-.14-3.06s0-.04,0-.06c-.21-2.7-.97-4.82-2.28-6.32-2.01-2.26-4.46-3.39-7.29-3.39-.27,0-.54.01-.82.03-1.59.12-3.11.54-4.52,1.25-1.19.6-2.32,1.36-3.36,2.27l-.14-2.5s0-.03,0-.05l-.41-4.99-.26-3.84c-.32-4.15-.43-5.15-.49-5.54-.15-.98-1-1.7-1.98-1.7h0Z"/>
  </g>
  <g>
    <path class="cls-2" d="M428.21,47.58c-.15,0-.36-.02-.64-.07-.22-.04-.42-.16-.57-.33-.26-.3-.4-.61-.42-.92-.03-.41.07-1.17,1.08-1.68.09-.06.17-.1,3.27-1.01.56-.15.69-.28.69-.29.1-.15.29-.52.21-1.46-.08-1.57-.38-5.76-.92-12.82-.13-1.7-.26-2.16-.29-2.25,0,0,0,0,0,0-.01,0-.14-.13-.49-.34-.16-.09-.72-.35-2.52-.61-.48-.07-.83-.47-.85-.95l-.04-.9c-.02-.43.24-.83.65-.98,1.55-.58,1.89-.73,1.96-.76.66-.35,1.33-.86,2.02-1.53.69-.66,1.26-1.4,1.7-2.18.14-.24.37-.42.64-.48.31-.08.56-.12.74-.13h.45c.49,0,.9.36.98.84.16,1.01.26,1.73.3,2.21,0,.1.02.58.05,1.42l.82,10.32.61,9.3c.03.7.18.88.18.88.02,0,.36.24,1.96.55.88.17,1.53.32,2,.46.25.08.46.25.59.49.14.26.22.51.23.75.02.31-.05.62-.21.97-.16.33-.49.55-.85.57-.81.04-1.86.07-3.13.08h-1.09c-1.1,0-1.86.01-2.25.04-.29.02-2.68.28-4.89.53-.58.06-1.15.16-1.67.27-.05.01-.09.02-.14.02-.03,0-.1,0-.13,0ZM431.78,12.36c-.9,0-1.69-.29-2.37-.86-.76-.65-1.19-1.52-1.27-2.6-.07-.94.25-1.82.92-2.55.66-.72,1.5-1.12,2.5-1.19.1,0,.21-.01.31-.01.9,0,1.73.3,2.47.9.84.68,1.29,1.49,1.36,2.4.07.91-.26,1.78-.98,2.58-.71.8-1.59,1.25-2.61,1.32-.11,0-.22.01-.33.01Z"/>
    <path class="cls-1" d="M431.86,6.14c.67,0,1.28.23,1.83.68.62.5.95,1.07,1,1.7.05.63-.2,1.24-.73,1.85-.53.6-1.18.93-1.94.99-.08,0-.17,0-.25,0-.66,0-1.23-.21-1.72-.62-.55-.47-.86-1.11-.92-1.92-.05-.67.17-1.27.65-1.79.49-.53,1.1-.82,1.84-.87.08,0,.16,0,.23,0M434.49,18.87h.37c.16.97.25,1.68.29,2.12,0,.1.02.56.04,1.37l.12,1.61.7,8.76.61,9.29c.04.75.2,1.26.49,1.54.29.27,1.11.55,2.45.81.84.16,1.47.31,1.89.44.07.14.11.26.12.36,0,.12-.03.28-.12.47-.8.04-1.84.07-3.1.08-.38,0-.74,0-1.06,0-1.13,0-1.92.02-2.35.05-.27.02-1.91.2-4.92.53-.61.07-1.21.16-1.78.29-.02,0-.03,0-.05,0-.1,0-.25-.02-.45-.06-.11-.13-.18-.25-.18-.35-.02-.28.16-.52.54-.71.08-.05,1.11-.36,3.09-.94.65-.17,1.06-.41,1.25-.71.32-.45.44-1.14.37-2.07-.08-1.56-.38-5.84-.92-12.82-.11-1.4-.23-2.26-.38-2.6-.12-.23-.42-.49-.88-.77-.47-.28-1.43-.53-2.9-.74l-.04-.9c1.31-.49,2.01-.77,2.11-.84.72-.38,1.45-.94,2.22-1.67.76-.73,1.39-1.54,1.88-2.42.24-.06.44-.09.58-.11M431.86,4.14c-.13,0-.26,0-.39.01-1.24.1-2.33.62-3.16,1.51-.87.94-1.27,2.08-1.18,3.3.1,1.34.66,2.48,1.62,3.29.85.72,1.89,1.1,3.02,1.1.13,0,.26,0,.4-.02,1.28-.1,2.41-.67,3.29-1.66,1.12-1.27,1.29-2.51,1.23-3.32-.06-.82-.41-2.02-1.73-3.1-.9-.74-1.98-1.13-3.1-1.13h0ZM434.49,16.87c-.05,0-.1,0-.15,0-.26.02-.54.07-.9.16-.54.13-1,.48-1.27.97-.39.7-.9,1.36-1.52,1.95-.63.6-1.22,1.06-1.77,1.35,0,0-.02.01-.03.02-.12.05-.52.22-1.84.71-.81.3-1.33,1.09-1.3,1.96l.04.9c.04.96.76,1.76,1.71,1.9,1.71.25,2.15.48,2.17.48.04.02.07.04.1.06.05.28.12.8.19,1.74.53,6.95.84,11.25.91,12.77,0,.02,0,.04,0,.05.02.32.01.53,0,.66-.04.01-.08.02-.13.04-.02,0-.03,0-.05.01-3.02.88-3.26.97-3.51,1.11-1.05.56-1.63,1.53-1.55,2.61.04.54.26,1.04.66,1.51.3.35.7.58,1.15.67.33.06.59.09.82.09.07,0,.14,0,.2,0,.09,0,.19-.02.28-.04.49-.11,1.02-.19,1.57-.25,1.59-.17,4.54-.5,4.85-.52.27-.02.86-.04,2.21-.04.32,0,.67,0,1.05,0,1.36-.02,2.4-.04,3.21-.09.74-.04,1.39-.48,1.71-1.15.24-.5.34-.99.3-1.46-.03-.39-.15-.77-.35-1.15-.25-.47-.67-.82-1.18-.97-.5-.15-1.19-.31-2.11-.49-.65-.13-1.06-.24-1.31-.32,0-.05,0-.1-.01-.16l-.62-9.32-.7-8.79-.12-1.56c-.03-1.22-.04-1.35-.05-1.42-.04-.51-.14-1.26-.31-2.29-.16-.96-.99-1.67-1.96-1.68h-.37s0,0-.01,0h0Z"/>
  </g>
  <g>
    <path class="cls-2" d="M455.57,46.32c-2.08,0-4.06-.49-5.86-1.46-2.11-1.13-3.81-2.85-5.06-5.1-1.23-2.21-1.94-4.46-2.11-6.68-.19-2.46.29-4.87,1.41-7.15,1.13-2.29,2.75-4.09,4.81-5.34,2.04-1.23,4.66-1.98,7.81-2.22.61-.05,1.2-.07,1.75-.07,2.24,0,4.09.39,5.49,1.15,1.19.67,1.86,1.67,1.95,2.9.07.91-.2,1.74-.77,2.39-.57.65-1.36,1.04-2.29,1.11-.09,0-.18.01-.27.01-1.24,0-2.55-.62-4-1.88-.73-.63-1.37-1.06-1.89-1.26-.4-.15-.84-.23-1.31-.23-.12,0-.23,0-.35.01-1.53.12-2.72.82-3.65,2.15-1.38,2.02-1.97,4.55-1.75,7.48.23,3.02,1.2,5.38,2.89,7.01,1.53,1.48,3.16,2.2,4.97,2.2h0c.17,0,.35,0,.53-.02,1.47-.11,2.76-.45,3.84-1,1.11-.56,2.42-1.58,3.9-3.03.19-.19.44-.29.7-.29.12,0,.23.02.34.06.36.13.62.46.65.85l.18,1.98c.02.26-.06.52-.22.72-1.55,1.9-3.17,3.3-4.79,4.14-1.63.85-3.59,1.36-5.83,1.54-.36.03-.71.04-1.06.04Z"/>
    <path class="cls-1" d="M458.33,19.29c2.08,0,3.75.34,5.01,1.03.89.5,1.36,1.2,1.43,2.09.05.65-.13,1.2-.53,1.66-.4.46-.94.71-1.62.77-.07,0-.13,0-.2,0-.98,0-2.09-.55-3.34-1.63-.82-.71-1.55-1.19-2.19-1.44-.52-.2-1.08-.3-1.67-.3-.14,0-.28,0-.43.02-1.83.14-3.3,1-4.4,2.57-1.53,2.24-2.17,4.95-1.92,8.13.25,3.29,1.31,5.84,3.19,7.65,1.71,1.66,3.6,2.48,5.67,2.48.2,0,.4,0,.6-.02,1.6-.12,3.01-.49,4.21-1.1,1.2-.61,2.59-1.68,4.15-3.21l.18,1.98c-1.48,1.81-2.97,3.1-4.48,3.89-1.51.79-3.33,1.26-5.45,1.42-.33.03-.66.04-.98.04-1.93,0-3.72-.45-5.39-1.34-1.94-1.05-3.49-2.61-4.65-4.71-1.16-2.09-1.82-4.19-1.98-6.27-.17-2.29.26-4.5,1.31-6.63,1.05-2.13,2.53-3.77,4.43-4.93,1.91-1.15,4.36-1.85,7.37-2.08.59-.04,1.14-.07,1.68-.07M458.33,17.29c-.58,0-1.19.02-1.83.07-3.3.25-6.08,1.05-8.25,2.36-2.23,1.35-3.98,3.29-5.19,5.76-1.2,2.45-1.71,5.03-1.51,7.67.18,2.37.93,4.76,2.23,7.09,1.34,2.42,3.18,4.27,5.46,5.5,1.95,1.05,4.08,1.58,6.34,1.58.37,0,.75-.01,1.13-.04,2.38-.18,4.47-.73,6.22-1.64,1.75-.91,3.47-2.39,5.11-4.4.33-.41.49-.93.44-1.45l-.18-1.98c-.07-.77-.58-1.43-1.3-1.69-.22-.08-.46-.12-.69-.12-.51,0-1.02.2-1.4.57-1.4,1.37-2.63,2.33-3.65,2.85-.96.49-2.13.79-3.46.89-.15.01-.3.02-.45.02-1.54,0-2.94-.63-4.27-1.92-1.53-1.48-2.37-3.56-2.59-6.37-.21-2.74.31-4.99,1.58-6.85.74-1.06,1.67-1.61,2.9-1.7.09,0,.18-.01.27-.01.35,0,.66.05.95.17.29.11.8.39,1.6,1.08,1.63,1.43,3.15,2.12,4.65,2.12.12,0,.23,0,.35-.01,1.2-.09,2.23-.59,2.97-1.45.75-.86,1.1-1.94,1.01-3.13-.08-1.09-.57-2.62-2.44-3.68-1.6-.87-3.55-1.29-6-1.29h0Z"/>
  </g>
  <g>
    <path class="cls-2" d="M469.21,44.33c-.49,0-.92-.36-.99-.86l-.13-.88c-.05-.34.08-.68.33-.9.26-.23.54-.38.82-.47.14-.04.38-.1,1.69-.29.55-.08.8-.19.89-.24.04-.26.1-1.09-.09-3.59l-.85-12.02-.22-2.09c-.02-.22-.05-.91-.1-2.11,0-.57-.03-1.21-.09-1.94l-.52-5.26-.33-4.65c-.09-1.16-.3-1.42-.31-1.43,0,0,0,0,0,0-.03,0-.58-.22-2.84-.36-.5-.03-.9-.43-.94-.93l-.03-.36c-.01-.14-.02-.34-.01-.61,0-.44.3-.82.72-.94,1.09-.31,2.06-.68,2.88-1.08.28-.14,1.1-.63,3.37-2.1.14-.09.3-.15.47-.16,0,0,1.01-.08,1.03-.08.25,0,.48.09.67.26.2.18.32.44.33.71.01.44.02.71.03.81l.2,2.65.07,1.33.27,2.33.25,3.67.49,6.01.48,7.51s.18,2.38.18,2.42c.28-.12.58-.3.89-.55,3-2.47,4.88-4.15,5.61-4.98.56-.65.76-1,.83-1.15-.01-.02-.03-.04-.04-.06-.49-.18-1.02-.3-1.59-.35-.26-.03-.53-.06-.82-.1-.38-.07-.66-.12-.88-.13-.41-.04-.76-.32-.87-.72l-.08-.3c-.02-.06-.03-.13-.04-.2-.02-.27.03-.59.15-.99.12-.38.45-.66.84-.7,3.24-.37,6.1-.65,8.51-.83,1.35-.1,2.83-.19,4.4-.24.01,0,.02,0,.04,0,.52,0,.96.4,1,.93l.03.4c.02.28-.03.61-.17.98-.11.3-.36.53-.67.62-.31.08-.79.21-1.44.39-1.16.28-2.01.59-2.54.94-1.46.92-2.96,2.17-4.46,3.73-.95.98-1.78,1.81-2.48,2.48l-.33.33c.08.08.17.17.28.27.26.26.73.69,1.4,1.3,2.44,2.18,4.2,3.82,5.38,5.02.37.37.79.78,1.26,1.24,2.32,2.19,2.79,2.56,2.88,2.62.26.13.92.37,2.18.5.56.06,1.03.12,1.44.17.35.05.65.27.79.6.15.35.22.63.24.88,0,.03,0,.07,0,.1v.31c-.02.54-.47.97-1.01.97,0,0-.79,0-.79,0-1.03,0-1.8.02-2.3.06l-.55.04-8.53.89c-.29.06-.56.1-.7.11-.07,0-.13,0-.2,0-.26,0-.53-.04-.8-.11-.28-.08-.52-.28-.64-.54-.13-.27-.2-.52-.22-.76l-.02-.22c-.01-.2.03-.39.13-.56.14-.24.36-.58.74-.76.09-.04.19-.07.29-.09,1.55-.24,2.38-.4,2.82-.49-.11-.14-.24-.3-.42-.5-.63-.7-2.25-2.28-4.8-4.68-2.19-2.06-2.8-2.45-2.94-2.52-.22-.12-.56-.18-.96-.18-.12,0-.24,0-.37.01l-.24.02c.03.88.11,2.23.25,4.01.23,3.04.63,3.89.79,4.12,0,0,.19.16.89.19,1.09.05,1.76.21,2.2.51.53.32.7,1,.79,1.48.05.28-.03.57-.2.79-.18.22-.44.36-.72.38-1.23.07-2.26.14-3.1.21-1.35.1-2.83.25-4.4.43-.98.11-1.75.19-2.32.24-.41.03-1.1.07-2.06.13-.02,0-.04,0-.06,0ZM478.2,39.99,478.2,39.99"/>
    <path class="cls-1" d="M473.98,2c.01.47.03.75.03.85l.2,2.65.07,1.31.28,2.4.24,3.62.49,6.02.48,7.49.18,2.31c.02.28.06.68.12,1.18h.34c.7-.05,1.39-.36,2.07-.92,3.06-2.52,4.96-4.22,5.72-5.1.76-.88,1.13-1.51,1.1-1.87-.02-.22-.17-.5-.47-.82-.64-.28-1.35-.45-2.12-.51-.23-.02-.48-.06-.75-.1-.38-.07-.69-.12-.94-.14l-.09-.3c-.01-.14.03-.35.11-.62,3.24-.37,6.06-.65,8.47-.83,1.36-.1,2.81-.18,4.36-.24l.03.4c.01.14-.03.33-.11.56-.3.08-.78.21-1.43.38-1.26.3-2.2.66-2.84,1.07-1.52.95-3.07,2.24-4.64,3.87-.94.97-1.76,1.79-2.45,2.46l-1.04,1.03c.09.14.24.3.44.49.09.07.27.24.53.51.27.26.75.71,1.43,1.33,2.4,2.14,4.18,3.8,5.34,4.98.38.38.81.8,1.27,1.25,1.74,1.64,2.75,2.55,3.03,2.74.6.32,1.48.54,2.63.66.54.06,1.01.12,1.41.17.1.24.16.43.17.57v.31c-.28,0-.55,0-.79,0-1.06,0-1.86.02-2.37.06l-.55.04-8.56.9c-.33.06-.55.1-.67.11-.04,0-.08,0-.13,0-.17,0-.35-.02-.53-.08-.07-.16-.12-.3-.13-.42l-.02-.21c.11-.19.21-.31.31-.36,2.02-.32,3.19-.54,3.51-.66.18-.06.35-.18.5-.38-.03-.34-.37-.88-1.02-1.6-.65-.73-2.27-2.31-4.85-4.74-1.64-1.55-2.7-2.44-3.16-2.68-.37-.19-.85-.29-1.42-.29-.14,0-.29,0-.45.02l-1.17.09c-.03.73.06,2.41.26,5.01.19,2.43.51,3.97.97,4.62.26.37.81.57,1.66.61.85.04,1.41.15,1.67.33.18.11.3.38.38.83-1.24.07-2.28.14-3.12.21-1.36.1-2.84.25-4.44.43-.96.11-1.72.19-2.28.23-.41.03-1.09.07-2.04.13l-.13-.88c.15-.13.3-.22.44-.26.14-.04.66-.13,1.55-.26.89-.13,1.44-.37,1.64-.72.2-.35.21-1.74.02-4.18l-.85-12.01-.22-2.12c-.01-.18-.05-.86-.09-2.04,0-.55-.03-1.21-.09-1.98l-.53-5.28-.32-4.62c-.09-1.11-.3-1.82-.64-2.11-.34-.29-1.49-.49-3.44-.61l-.03-.36c0-.12-.01-.3,0-.52,1.15-.33,2.17-.72,3.05-1.15.46-.24,1.61-.96,3.47-2.16l.96-.07M473.98,0c-.05,0-.1,0-.15,0l-.96.07c-.33.03-.66.13-.94.32-2.36,1.53-3.08,1.95-3.3,2.07-.73.36-1.64.7-2.68,1-.84.24-1.43,1.01-1.45,1.89,0,.3,0,.54.01.7l.03.36c.07,1,.88,1.79,1.88,1.85,1.12.07,1.77.15,2.13.22.03.15.06.37.08.65l.32,4.61s0,.04,0,.06l.53,5.28c.05.67.08,1.29.08,1.78,0,.03,0,.05,0,.08.05,1.21.08,1.91.1,2.1,0,.02,0,.05,0,.07l.22,2.09.85,11.98c.11,1.43.13,2.27.13,2.76-.03,0-.05,0-.08.01-1.38.2-1.62.26-1.82.31-.43.13-.83.35-1.2.67-.52.45-.77,1.12-.67,1.8l.13.88c.14.99.99,1.71,1.98,1.71.04,0,.07,0,.11,0,.97-.05,1.67-.1,2.09-.13.59-.04,1.38-.13,2.36-.24,1.55-.18,3.02-.32,4.35-.42.84-.06,1.86-.13,3.09-.21.56-.03,1.08-.3,1.44-.74.24.24.55.42.88.51.36.1.71.15,1.06.15.09,0,.18,0,.27-.01.19-.01.43-.05.82-.13l8.44-.88.53-.04c.47-.04,1.22-.05,2.22-.05.24,0,.5,0,.77,0,0,0,.01,0,.02,0,1.08,0,1.97-.86,2-1.95v-.31c0-.07,0-.13,0-.2-.03-.37-.13-.75-.32-1.2-.28-.65-.88-1.11-1.59-1.2-.41-.05-.89-.11-1.44-.17-1.02-.1-1.55-.27-1.81-.39-.17-.14-.79-.67-2.7-2.47-.44-.43-.86-.84-1.24-1.21-1.18-1.2-2.96-2.85-5.42-5.05-.36-.33-.66-.6-.9-.82.61-.6,1.32-1.31,2.09-2.1,1.45-1.51,2.88-2.7,4.26-3.57.28-.18.89-.5,2.24-.82.02,0,.03,0,.05-.01.66-.17,1.14-.3,1.45-.39.62-.17,1.11-.63,1.34-1.23.19-.51.27-.98.23-1.42l-.03-.38c-.08-1.05-.95-1.85-1.99-1.85-.02,0-.05,0-.07,0-1.57.06-3.06.14-4.44.24-2.41.18-5.29.46-8.54.84-.79.09-1.46.64-1.69,1.41-.16.52-.22.95-.19,1.35,0,.14.03.27.07.4l.09.3c.23.8.92,1.37,1.75,1.45.12.01.35.04.74.11.02,0,.05,0,.07.01.31.05.59.08.85.11.03,0,.06,0,.09,0-.51.56-1.76,1.75-4.79,4.26l-.05-.68-.48-7.47-.49-6.06-.24-3.6s0-.06,0-.09l-.27-2.33-.07-1.25-.21-2.69c0-.09-.02-.35-.03-.76-.02-.55-.26-1.06-.66-1.43-.37-.33-.85-.51-1.34-.51h0ZM478.92,39.16c-.13-.4-.36-1.34-.51-3.37-.1-1.26-.16-2.21-.2-2.93.05.01.07.02.07.02.08.04.63.41,2.71,2.36,2.02,1.9,3.22,3.07,3.94,3.79-.29.05-.63.1-1.01.16-.2.03-.39.09-.58.18-.39.19-.72.49-1.01.91-.14-.16-.31-.32-.52-.45-.6-.41-1.41-.61-2.69-.66-.08,0-.15,0-.21-.02h0Z"/>
  </g>
  <g>
    <path class="cls-2" d="M509.05,42.09c-1.28,0-2.59-.21-3.87-.63-2.37-.8-4.31-2.24-5.78-4.29-1.46-2.03-2.31-4.57-2.54-7.56-.08-.98,0-2.19.26-3.71.25-1.51.78-3.15,1.58-4.87.56-1.23,1.31-2.28,2.21-3.13,1.22-1.13,2.34-1.95,3.31-2.44,1.41-.71,3.08-1.14,4.97-1.28.4-.03.79-.05,1.16-.05,1.58,0,2.96.27,4.11.82,1.87.86,3.34,2.07,4.36,3.6,1.01,1.52,1.58,2.98,1.69,4.34l.03.43c.04.55-.37,1.03-.91,1.07l-12.36,1.03-2.35.18c-.69.05-1.4.13-2.12.23-.02.15-.03.24-.03.28l.04.23s0,.07.01.1l.02.3.08,1.52c.08,1.07.56,2.44,1.42,4.04.83,1.55,1.94,2.71,3.3,3.44,1.21.65,2.7.98,4.41.98h0c.23,0,.46,0,.69-.02,1-.13,1.85-.33,2.45-.57.59-.24,1.45-.78,2.58-1.62l2.04-1.92c.19-.18.43-.27.69-.27.1,0,.19.01.29.04.34.1.6.38.68.73l.28,1.2s.02.09.02.14c.01.18.02.38,0,.59,0,.18-.07.36-.17.51-.9,1.32-2.08,2.51-3.53,3.56-1.42,1.03-2.91,1.83-4.42,2.38-.79.27-1.99.46-3.7.59-.3.02-.6.03-.9.03ZM509.79,17.58c-.18,0-.36,0-.55.02-2.09.16-3.66,1.03-4.79,2.66-.57.81-.94,1.56-1.11,2.24l.28-.02c1.02-.08,4.14-.48,9.28-1.2.56-.07.85-.14.99-.17.11-.16.12-.23.12-.23-.04-.43-.25-.99-.64-1.61-.36-.59-.88-1.02-1.57-1.31-.59-.25-1.27-.38-2.01-.38Z"/>
    <path class="cls-1" d="M510.35,15.12c1.44,0,2.66.24,3.68.72,1.72.79,3.03,1.87,3.95,3.25.92,1.38,1.43,2.67,1.52,3.86l.03.43-12.36,1.03-2.34.18c-.95.07-1.91.19-2.89.35-.14.62-.2,1.05-.18,1.27l.05.3.02.3.08,1.49c.09,1.24.61,2.72,1.53,4.46.93,1.73,2.16,3.02,3.7,3.85,1.37.74,3,1.1,4.88,1.1.24,0,.49,0,.74-.02,1.17-.15,2.09-.36,2.78-.64.68-.28,1.63-.87,2.84-1.78l2.08-1.96.28,1.2c.01.14.01.29,0,.46-.84,1.23-1.93,2.33-3.28,3.31-1.35.98-2.74,1.73-4.17,2.25-.68.24-1.83.42-3.43.54-.27.02-.55.03-.82.03-1.19,0-2.37-.2-3.56-.58-2.17-.73-3.93-2.04-5.28-3.93-1.35-1.89-2.14-4.24-2.35-7.06-.07-.89.01-2.05.25-3.48.23-1.43.73-2.96,1.5-4.61.51-1.12,1.18-2.06,1.99-2.81,1.16-1.07,2.19-1.83,3.08-2.29,1.3-.65,2.83-1.04,4.6-1.18.38-.03.74-.04,1.09-.04M502.24,23.59l1.45-.11c1.05-.08,4.16-.48,9.34-1.2.82-.1,1.32-.22,1.49-.36.34-.41.5-.77.48-1.08-.05-.63-.31-1.33-.78-2.1-.47-.77-1.15-1.34-2.04-1.71-.72-.3-1.52-.45-2.4-.45-.2,0-.41,0-.63.02-2.38.18-4.23,1.21-5.54,3.08-1.01,1.42-1.47,2.72-1.38,3.9M510.35,13.12h0c-.4,0-.82.02-1.24.05-2.02.15-3.82.62-5.34,1.38-1.08.55-2.24,1.4-3.54,2.6-1.01.94-1.83,2.1-2.45,3.45-.83,1.8-1.39,3.52-1.65,5.12-.26,1.6-.35,2.89-.27,3.95.24,3.17,1.16,5.89,2.72,8.07,1.6,2.22,3.71,3.79,6.26,4.66,1.4.46,2.81.69,4.2.69.32,0,.65-.01.98-.04,1.82-.14,3.07-.34,3.93-.64,1.63-.59,3.2-1.43,4.7-2.52,1.53-1.11,2.8-2.39,3.76-3.8.21-.3.32-.65.34-1.02.01-.25.01-.5,0-.73,0-.1-.02-.19-.04-.29l-.28-1.2c-.16-.7-.68-1.26-1.37-1.46-.19-.06-.39-.09-.58-.09-.5,0-1,.19-1.37.54l-2,1.88c-1.35,1-2.02,1.34-2.3,1.46-.35.14-1.01.34-2.2.5-.19,0-.38.01-.56.01-1.54,0-2.87-.29-3.93-.87-1.2-.65-2.15-1.64-2.89-3.03-.99-1.84-1.25-3.01-1.3-3.66l-.08-1.45h0c.39-.05.77-.09,1.15-.12l2.34-.18,12.38-1.03c1.09-.09,1.91-1.05,1.83-2.14l-.03-.43c-.12-1.54-.74-3.16-1.85-4.82-1.13-1.68-2.74-3.01-4.78-3.95-1.26-.6-2.79-.9-4.51-.9h0ZM504.93,21.34c.1-.16.21-.33.33-.49.97-1.4,2.26-2.11,4.06-2.25.16-.01.32-.02.48-.02.61,0,1.16.1,1.63.3.5.21.85.5,1.11.91.12.19.2.35.27.5,0,0,0,0,0,0-3.66.51-6.29.86-7.86,1.05h0Z"/>
  </g>
  <g>
    <path class="cls-2" d="M528.54,55.28c-.94,0-1.7-.23-2.27-.67-.68-.54-1.08-1.33-1.15-2.3-.07-.96.3-1.85,1.12-2.64.1-.1.21-.17.34-.22.15-.06.3-.13.45-.22.07-.04.14-.07.21-.09l.39-.12c.09-.03.19-.04.29-.04.03,0,.07,0,.1,0,1.48.15,2.51.22,3.05.23.16-.12.28-.25.35-.37.86-1.48,1.58-3.15,2.14-4.94.74-2.37.78-3.15.77-3.38-.03-.38-.22-1.14-.94-2.58l-4.12-8.7c-.56-1.11-2.23-4.72-5.1-11.01-.08-.19-.16-.31-.22-.39l-1.84-.51-.58-.06c-.07,0-.13-.02-.2-.04-1.06-.34-1.24-1.12-1.26-1.44,0-.12,0-.25.04-.37l.12-.41c.11-.36.42-.63.79-.7.48-.08.89-.13,1.22-.16l1.48-.11,1.97-.21,2.7-.11,2.06-.22c.67-.05,1.28-.08,1.85-.08.49,0,.96.02,1.4.05.35.03.66.24.82.55.15.31.24.58.26.83,0,.05,0,.1,0,.14v.24c-.03.34-.22.65-.52.81-.52.3-1.28.52-2.3.7-.87.14-1.43.3-1.79.45.03.06.06.14.11.23.12.24.3.62.51,1.12.57,1.48,1.78,4.32,3.6,8.48.91,2.06,1.77,3.94,2.57,5.6.25-.76.51-1.6.79-2.52l2.03-7.4c.47-1.58.79-3.15.97-4.69.08-.71.08-1.1.07-1.31,0-.01-.03-.06-.11-.13-.01,0-.23-.18-1.16-.32-2.45-.42-2.61-.52-2.82-.65-.39-.24-.63-.67-.71-1.28-.05-.32.06-.64.3-.86.2-.19.43-.35.69-.46.11-.05.22-.08.34-.09l1.91-.15,2.08-.13,3.06-.26,2-.12.41-.06c.14-.01.24-.02.36-.02.14,0,.32,0,.54.01.11,0,.22.03.33.07.57.23.92.71.97,1.31.03.34-.04.86-.52,1.34-.13.14-.31.23-.49.28l-.61.14c-1.03.22-1.79.53-2.26.92-.03.02-.24.22-.44,1.05-.06.31-.18.72-.34,1.2-.08.24-.19.64-.34,1.19-.15.59-.36,1.3-.61,2.11l-.28.81v.05c-.01.06-.03.11-.04.16l-4.2,14.02-3.04,10.52c-.23.61-.47,1.25-.74,2.01-.99,2.23-1.23,2.61-1.36,2.77-.61.87-1.15,1.48-1.66,1.88-.05.04-.1.07-.16.1l-1.52.79s-.09.04-.14.06c-.39.13-.8.21-1.23.25-.17.01-.34.02-.51.02Z"/>
    <path class="cls-1" d="M547.19,13.2c.13,0,.29,0,.49.01.21.09.33.24.35.46.02.2-.06.39-.24.57l-.61.14c-1.18.25-2.07.63-2.68,1.12-.33.27-.59.8-.78,1.59-.06.29-.16.67-.32,1.13-.08.25-.2.67-.35,1.25-.15.58-.35,1.27-.6,2.06l-.3.88-.02.15-4.2,14.02-3.04,10.53c-.21.53-.45,1.18-.72,1.96-.67,1.51-1.08,2.33-1.21,2.49-.56.8-1.05,1.37-1.48,1.71l-1.52.79c-.3.1-.63.17-.98.2-.15.01-.3.02-.43.02-.71,0-1.26-.15-1.65-.46-.46-.37-.72-.9-.77-1.59-.05-.65.22-1.27.82-1.85.2-.08.4-.17.6-.29l.39-.12c1.57.15,2.63.23,3.2.23.11,0,.19,0,.27,0,.42-.26.71-.54.9-.86.9-1.55,1.64-3.27,2.22-5.14.59-1.87.86-3.12.81-3.76-.05-.69-.4-1.67-1.05-2.95l-4.11-8.68c-.56-1.12-2.26-4.79-5.1-10.99-.18-.4-.38-.69-.63-.87l-2.16-.6-.66-.07c-.36-.12-.55-.3-.57-.57l.12-.41c.45-.07.83-.12,1.14-.15l1.48-.11,2-.21,2.63-.11,2.12-.22c.61-.05,1.2-.07,1.75-.07.46,0,.9.02,1.32.05.1.2.15.36.16.48v.24c-.43.24-1.09.43-1.99.58-1.27.2-2.17.49-2.69.88l-.04.34c.02.2.12.5.32.9.12.24.28.59.49,1.07.57,1.47,1.77,4.3,3.61,8.49,1.33,3.03,2.54,5.62,3.65,7.78.47-1.27,1-2.87,1.59-4.81l2.04-7.42c.48-1.62.81-3.23,1-4.84.08-.64.1-1.14.07-1.5-.02-.3-.18-.58-.47-.82-.29-.24-.84-.43-1.66-.55-1.49-.25-2.3-.42-2.43-.5-.13-.08-.22-.27-.26-.58.11-.11.25-.2.41-.28l1.91-.15,2.07-.13,3.08-.27,1.98-.12.49-.07c.06,0,.13,0,.22,0M547.19,11.2c-.15,0-.28,0-.38.01-.04,0-.08,0-.12.01l-.41.06-1.9.12s-.03,0-.05,0l-3.08.27-2.02.12-1.94.15c-.24.02-.47.08-.68.18-.37.17-.69.39-.97.66-.16.15-.29.33-.39.52-.34-.47-.87-.77-1.46-.82-.47-.04-.97-.06-1.48-.06-.6,0-1.24.03-1.9.08-.02,0-.04,0-.06,0l-2.06.22-2.57.11s-.09,0-.13,0l-1.97.21-1.45.11c-.38.03-.8.08-1.31.17-.75.12-1.36.66-1.58,1.39l-.12.41c-.07.24-.1.49-.08.74.08,1.09.81,1.95,1.95,2.32.13.04.26.07.39.08l.5.05,1.36.38c2.87,6.29,4.54,9.88,5.1,11.01l4.09,8.64s.02.03.02.05c.73,1.45.83,2.05.84,2.2,0,.06,0,.69-.72,3.01-.52,1.66-1.18,3.21-1.97,4.59-.47-.02-1.25-.08-2.52-.21-.07,0-.13,0-.2,0-.2,0-.4.03-.59.09l-.39.12c-.15.05-.29.11-.42.19-.11.06-.21.11-.3.15-.26.1-.49.24-.68.43-1.3,1.26-1.49,2.56-1.42,3.44.12,1.59.9,2.51,1.53,3.01.74.59,1.72.89,2.89.89.19,0,.38,0,.59-.02.51-.04,1-.14,1.47-.3.1-.03.19-.07.28-.12l1.52-.79c.11-.06.22-.13.32-.21.58-.46,1.18-1.14,1.84-2.07.23-.29.51-.8,1.44-2.88.02-.05.04-.1.06-.16.25-.73.49-1.36.69-1.88.02-.06.04-.12.06-.18l3.04-10.53,4.2-14c.03-.09.05-.18.06-.27l.24-.69s.01-.04.02-.06c.27-.85.47-1.55.63-2.16.14-.54.25-.92.32-1.12.17-.51.29-.95.37-1.32.07-.31.14-.47.18-.55.25-.17.76-.44,1.75-.65l.63-.14c.37-.08.72-.28.99-.55.58-.59.86-1.34.8-2.12-.07-.98-.67-1.79-1.59-2.17-.21-.08-.43-.13-.65-.14-.23-.01-.43-.02-.58-.02h0ZM531.58,17.84c.16-.03.34-.06.54-.1,1.17-.2,2.01-.45,2.65-.81.4-.22.7-.57.87-.98.19.24.4.41.58.53.4.25.75.38,3.16.79.19.03.34.06.46.08-.01.16-.03.35-.06.58-.17,1.49-.49,3.01-.93,4.51l-2.04,7.43s0,.03-.01.04c-.47-1.03-.96-2.12-1.47-3.27-1.81-4.14-3.02-6.97-3.57-8.41,0-.02-.02-.04-.03-.06-.05-.11-.1-.22-.14-.32h0Z"/>
  </g>
  <g>
    <path class="cls-2" d="M559.07,38.44c-2.13,0-4.18-.33-6.09-.99-.08-.03-.16-.07-.23-.12-.47-.32-.75-.85-.84-1.6-.02-.2-.06-.46-.12-.82-.73-3.68-.85-4.58-.88-4.93-.04-.57.11-1.01.44-1.31.28-.26.69-.39,1.39-.44.03,0,.05,0,.08,0,.38,0,.73.22.9.56,1.08,2.23,1.63,3.09,1.89,3.42.78.98,1.67,1.72,2.67,2.21.83.4,1.71.61,2.62.61.16,0,.32,0,.49-.02.92-.07,1.84-.56,2.74-1.47.55-.58.8-1.22.75-1.93-.08-1.08-.55-2.03-1.44-2.91-.92-.89-2.71-1.73-5.32-2.48-2.98-.86-4.99-1.86-6.14-3.07-1.17-1.23-1.83-2.71-1.96-4.4-.12-1.59.22-3.05,1.01-4.34.77-1.27,1.91-2.28,3.37-3,1.41-.69,2.76-1.09,4.01-1.19.68-.05,1.35-.08,1.97-.08.76,0,1.5.04,2.18.12,1.28.15,2.42.45,3.39.89.28.13.49.38.56.68.25,1.06.51,2.62.77,4.64l.13.96c.08.54-.3,1.05-.84,1.13-.3.04-.54.08-.75.09,0,0-.48.04-.51.04-.39,0-.75-.23-.91-.58-.67-1.48-1.58-2.58-2.77-3.37-1.04-.69-2.03-1.04-2.95-1.04-.09,0-.19,0-.28.01-.97.07-1.7.4-2.23,1-.52.59-.74,1.33-.67,2.26.05.67.32,1.23.82,1.73.31.31,1.26.96,4.12,1.85,2.45.77,4.21,1.51,5.4,2.27,1.24.79,2.2,1.81,2.86,3.04.64,1.2,1.01,2.39,1.1,3.54.12,1.62-.3,3.19-1.26,4.66-.95,1.45-2.21,2.53-3.75,3.21-1.46.65-2.83,1.02-4.05,1.12-.55.04-1.1.06-1.64.06Z"/>
    <path class="cls-1" d="M560.38,11.15c.73,0,1.42.04,2.06.11,1.18.14,2.21.4,3.09.81.24,1.02.49,2.53.75,4.53l.14.97c-.27.04-.49.07-.68.08l-.43.03c-.75-1.64-1.79-2.9-3.13-3.79-1.21-.8-2.38-1.2-3.5-1.2-.12,0-.24,0-.36.01-1.23.09-2.2.54-2.91,1.34-.71.8-1.01,1.8-.92,2.99.07.91.44,1.7,1.11,2.36.67.66,2.18,1.36,4.52,2.1,2.34.74,4.06,1.46,5.16,2.16,1.1.7,1.94,1.59,2.52,2.67.58,1.08.91,2.13.98,3.14.11,1.4-.26,2.75-1.1,4.03-.84,1.29-1.95,2.24-3.32,2.84-1.37.61-2.61.95-3.72,1.03-.53.04-1.05.06-1.56.06-2.03,0-3.95-.31-5.76-.94-.22-.15-.35-.44-.41-.89-.01-.18-.06-.48-.13-.88-.54-2.71-.83-4.32-.86-4.83-.02-.24.02-.41.12-.5.1-.09.36-.15.79-.18.91,1.87,1.58,3.07,2.01,3.61.87,1.1,1.87,1.92,3.01,2.48.97.47,1.99.71,3.06.71.19,0,.37,0,.56-.02,1.17-.09,2.3-.68,3.37-1.76.77-.81,1.11-1.72,1.03-2.71-.1-1.32-.68-2.5-1.73-3.54-1.05-1.02-2.96-1.93-5.75-2.73-2.78-.8-4.68-1.73-5.69-2.79-1.01-1.06-1.57-2.33-1.69-3.79-.1-1.38.18-2.62.86-3.74.68-1.11,1.67-1.99,2.96-2.63,1.3-.64,2.51-1,3.64-1.09.66-.05,1.29-.08,1.9-.08M560.38,9.15c-.65,0-1.34.03-2.05.08-1.38.11-2.85.54-4.37,1.29-1.64.81-2.91,1.94-3.79,3.38-.9,1.47-1.29,3.13-1.15,4.93.15,1.93.9,3.62,2.23,5.02,1.27,1.34,3.43,2.43,6.59,3.34,3.05.87,4.35,1.7,4.9,2.24.69.69,1.07,1.43,1.13,2.26.02.3-.02.67-.48,1.17-.72.71-1.42,1.1-2.09,1.15-.14.01-.27.02-.41.02-.77,0-1.48-.17-2.18-.51-.88-.43-1.64-1.06-2.32-1.92-.16-.2-.64-.9-1.78-3.24-.34-.69-1.04-1.13-1.8-1.13-.05,0-.1,0-.15,0-.66.05-1.42.17-2,.71-.39.35-.84,1.01-.76,2.12.03.41.16,1.35.9,5.07.08.44.09.61.1.64,0,.03,0,.06,0,.09.16,1.3.78,1.97,1.28,2.3.14.1.3.17.46.23,2.02.7,4.18,1.05,6.42,1.05.56,0,1.14-.02,1.71-.07,1.34-.1,2.81-.5,4.38-1.2,1.72-.76,3.13-1.96,4.19-3.58,1.09-1.66,1.57-3.44,1.42-5.28-.1-1.29-.51-2.61-1.22-3.93-.74-1.38-1.82-2.53-3.2-3.41-1.26-.81-3.11-1.59-5.64-2.38-2.9-.91-3.6-1.5-3.71-1.61-.33-.32-.49-.66-.52-1.09-.06-.84.19-1.25.43-1.52.22-.25.63-.6,1.56-.67.07,0,.14,0,.2,0,.72,0,1.53.29,2.4.87,1.03.68,1.82,1.65,2.41,2.95.33.72,1.04,1.17,1.82,1.17.05,0,.1,0,.15,0l.43-.03c.23-.02.5-.05.83-.1,1.08-.16,1.83-1.17,1.68-2.26l-.14-.97c-.26-2.06-.52-3.61-.78-4.72-.14-.6-.55-1.1-1.12-1.36-1.07-.49-2.31-.81-3.69-.97-.72-.08-1.49-.12-2.29-.12h0Z"/>
  </g>
</svg>